<?xml version="1.0" standalone="no"?>
<!DOCTYPE svg PUBLIC "-//W3C//DTD SVG 1.1//EN" "http://www.w3.org/Graphics/SVG/1.1/DTD/svg11.dtd" >
<svg xmlns="http://www.w3.org/2000/svg">
<metadata>Generated by IcoMoon</metadata>
<defs>
<font id="iconMap" horiz-adv-x="1024">
<font-face units-per-em="1024" ascent="960" descent="-64" />
<missing-glyph horiz-adv-x="1024" />
<glyph unicode="&#x20;" horiz-adv-x="512" d="" />
<glyph unicode="&#xe900;" glyph-name="specialist" d="M880.64 189.44c2.56-10.24 5.12-20.48 7.68-35.84s2.56-28.16 2.56-43.52c0-15.36 0-28.16-2.56-40.96s-5.12-23.040-10.24-28.16c-2.56-5.12-12.8-10.24-25.6-12.8-12.8-5.12-30.72-7.68-51.2-12.8-20.48-2.56-43.52-7.68-69.12-10.24s-51.2-5.12-76.8-7.68c-25.6-2.56-51.2-5.12-74.24-5.12-25.6 0-46.080-2.56-64-2.56s-38.4 0-64 2.56c-23.040 2.56-48.64 2.56-74.24 5.12s-51.2 5.12-76.8 7.68c-25.6 2.56-48.64 5.12-69.12 10.24-20.48 2.56-38.4 7.68-53.76 10.24s-23.040 5.12-28.16 10.24c-5.12 5.12-10.24 20.48-15.36 43.52-2.56 25.6-2.56 56.32 5.12 97.28 2.56 23.040 12.8 40.96 28.16 51.2 15.36 12.8 33.28 20.48 53.76 28.16s40.96 12.8 64 17.92c23.040 5.12 40.96 12.8 56.32 23.040 12.8 7.68 23.040 15.36 30.72 23.040s12.8 15.36 15.36 23.040c2.56 7.68 5.12 15.36 5.12 23.040s0 17.92 0 28.16c-2.56 15.36-5.12 25.6-15.36 33.28-7.68 7.68-17.92 15.36-28.16 25.6-5.12 5.12-10.24 10.24-12.8 17.92s-7.68 15.36-10.24 23.040c-2.56 7.68-7.68 17.92-10.24 28.16-2.56 2.56-2.56 2.56-5.12 7.68-2.56 2.56-5.12 7.68-7.68 12.8s-5.12 12.8-10.24 25.6c-2.56 10.24-5.12 20.48-7.68 28.16 0 7.68 0 15.36 0 20.48 0 7.68 2.56 12.8 5.12 17.92 0 23.040 2.56 46.080 5.12 69.12 2.56 20.48 7.68 40.96 12.8 64s15.36 43.52 28.16 61.44c12.8 17.92 25.6 30.72 38.4 40.96 15.36 10.24 28.16 20.48 43.52 25.6s30.72 10.24 46.080 12.8c15.36-2.56 30.72 0 46.080 0 15.36-2.56 28.16-2.56 38.4-5.12s17.92-5.12 23.040-7.68c5.12-5.12 10.24-10.24 15.36-12.8 5.12-5.12 7.68-10.24 12.8-12.8h20.48c5.12 0 12.8 0 17.92-2.56s10.24-5.12 17.92-10.24c5.12-5.12 12.8-10.24 17.92-20.48 15.36-20.48 28.16-40.96 33.28-66.56 7.68-23.040 12.8-46.080 15.36-66.56 2.56-25.6 5.12-48.64 5.12-71.68 2.56-2.56 2.56-7.68 2.56-12.8s0-10.24 2.56-17.92c0-7.68 0-15.36-2.56-25.6-2.56-12.8-2.56-23.040-5.12-30.72s-5.12-12.8-10.24-17.92c-2.56-5.12-7.68-7.68-10.24-10.24-2.56-10.24-5.12-20.48-10.24-28.16-2.56-7.68-7.68-15.36-10.24-23.040s-7.68-12.8-12.8-17.92-20.48-17.92-28.16-23.040c-7.68-5.12-12.8-17.92-15.36-33.28-2.56-10.24-2.56-17.92-2.56-28.16s2.56-17.92 7.68-28.16c5.12-10.24 10.24-17.92 20.48-28.16 10.24-7.68 23.040-15.36 40.96-23.040 15.36-5.12 33.28-10.24 51.2-15.36s35.84-10.24 53.76-17.92c17.92-5.12 33.28-15.36 46.080-25.6 17.92-7.68 25.6-20.48 33.28-35.84v0 0zM552.96 220.16c2.56 5.12 2.56 7.68 0 12.8s-5.12 7.68-7.68 12.8c-2.56 5.12-7.68 7.68-12.8 12.8h-46.080c-5.12-5.12-7.68-10.24-10.24-12.8s-5.12-7.68-7.68-10.24c-2.56-5.12-2.56-7.68 0-10.24 5.12-10.24 7.68-17.92 12.8-25.6 2.56-7.68 7.68-12.8 10.24-15.36-2.56-5.12-2.56-15.36-5.12-25.6s-5.12-23.040-7.68-33.28c-2.56-12.8-5.12-23.040-5.12-33.28-2.56-10.24-2.56-17.92-2.56-23.040 0-2.56 2.56-7.68 5.12-12.8s7.68-10.24 10.24-15.36c5.12-5.12 7.68-10.24 12.8-12.8s7.68-5.12 12.8-5.12c2.56 0 7.68 2.56 12.8 5.12s10.24 7.68 12.8 10.24c5.12 5.12 7.68 10.24 10.24 12.8 2.56 5.12 5.12 10.24 5.12 12.8 0 5.12 0 10.24-2.56 20.48s-5.12 20.48-7.68 33.28c-2.56 12.8-5.12 23.040-7.68 35.84-2.56 10.24-5.12 20.48-7.68 28.16 5.12 2.56 7.68 7.68 12.8 15.36 2.56 5.12 7.68 12.8 12.8 23.040v0 0z" />
<glyph unicode="&#xe901;" glyph-name="minus" d="M897.709 518.047h-812.192c-33.623 0-60.866-27.244-60.866-60.866s27.244-60.927 60.866-60.927h812.132c33.623 0 60.927 27.304 60.927 60.927s-27.244 60.866-60.866 60.866z" />
<glyph unicode="&#xe902;" glyph-name="add" d="M61.28 491.602h896.872v-86.793h-896.872v86.793zM466.319 896.642h86.794v-896.871h-86.794v896.871z" />
<glyph unicode="&#xe903;" glyph-name="GPS" d="M512-10.24c-209.92 0-381.44 58.88-381.44 133.12 0 53.76 87.040 97.28 212.48 120.32 74.24-79.36 153.6-163.84 153.6-163.84 7.68-7.68 20.48-7.68 28.16 0 0 0 81.92 87.040 153.6 163.84 125.44-23.040 212.48-66.56 212.48-120.32 2.56-71.68-168.96-133.12-378.88-133.12zM522.24 202.24c-5.12-5.12-15.36-5.12-20.48 0 0 0-199.68 215.040-202.24 215.040-40.96 51.2-66.56 120.32-66.56 192 0 163.84 125.44 296.96 279.040 296.96s279.040-133.12 279.040-296.96c0-74.24-25.6-140.8-66.56-192-2.56-2.56-202.24-215.040-202.24-215.040zM512 744.96c-66.56 0-120.32-56.32-120.32-128 0-69.12 53.76-128 120.32-128s120.32 56.32 120.32 128c0 69.12-53.76 128-120.32 128z" />
<glyph unicode="&#xe904;" glyph-name="eagle" d="M166.4 143.36c-2.56 2.56-5.12 5.12-5.12 7.68-2.56 2.56-5.12 7.68-7.68 10.24s-5.12 5.12-5.12 7.68c-2.56 2.56-5.12 7.68-7.68 10.24s-2.56 5.12-5.12 7.68-5.12 7.68-7.68 12.8c0 2.56-2.56 2.56-2.56 5.12-2.56 5.12-5.12 10.24-10.24 15.36 0 0 0 2.56-2.56 2.56-33.28 58.88-53.76 122.88-58.88 194.56 0 2.56 0 2.56 0 5.12 0 5.12 0 7.68 0 12.8 0 2.56 0 7.68 0 10.24 0 0 0 2.56 0 2.56 0 2.56 0 5.12 0 7.68 0 5.12 0 7.68 0 12.8 0 2.56 0 7.68 0 10.24s0 7.68 0 10.24c0 5.12 0 10.24 2.56 15.36 0 2.56 0 5.12 0 7.68 0 5.12 2.56 12.8 2.56 17.92 0 0 0 2.56 0 2.56 12.8 74.24 46.080 140.8 89.6 197.12 0 0 0 0 0 2.56 5.12 5.12 7.68 10.24 12.8 15.36 0 0 2.56 2.56 2.56 2.56 5.12 5.12 10.24 10.24 12.8 12.8s5.12 2.56 5.12 5.12 7.68 7.68 10.24 10.24c2.56 2.56 5.12 5.12 7.68 5.12 2.56 2.56 5.12 7.68 7.68 10.24s5.12 5.12 7.68 5.12c2.56 2.56 7.68 5.12 10.24 7.68s5.12 5.12 7.68 7.68c2.56 2.56 7.68 5.12 10.24 7.68s5.12 2.56 7.68 5.12 7.68 5.12 12.8 7.68c2.56 0 2.56 2.56 5.12 2.56 5.12 2.56 10.24 5.12 15.36 10.24 0 0 2.56 0 2.56 2.56 48.64 28.16 104.96 46.080 163.84 53.76 0 0 2.56 0 2.56 0 5.12 0 10.24 0 15.36 2.56 5.12 0 10.24 0 12.8 0s5.12 0 7.68 0 12.8 0 17.92 0c0 0 0 0 0 0s0 0 0 0c7.68 0 12.8 0 20.48 0 2.56 0 2.56 0 5.12 0 7.68 0 12.8 0 20.48-2.56 2.56 0 5.12 0 7.68 0 5.12 0 7.68 0 12.8-2.56 5.12 0 12.8-2.56 17.92-2.56 2.56 0 2.56 0 5.12 0 5.12 0 10.24-2.56 12.8-2.56 0 0 0 0 0 0 66.56-15.36 128-43.52 179.2-84.48 0 0 0 0 0 0 5.12-5.12 12.8-10.24 17.92-15.36 2.56-2.56 2.56-2.56 5.12-5.12s5.12-5.12 7.68-7.68c0 0 0 0 2.56-2.56v0c7.68 0 7.68 0 10.24-2.56v0c0 0 0 0 2.56-2.56s5.12-5.12 7.68-7.68c2.56-2.56 5.12-5.12 7.68-7.68s2.56-2.56 5.12-5.12c5.12-5.12 7.68-7.68 12.8-12.8 2.56-2.56 2.56-2.56 5.12-5.12s5.12-7.68 7.68-10.24c2.56-2.56 2.56-2.56 5.12-5.12 2.56-5.12 7.68-10.24 10.24-15.36 2.56-2.56 2.56-5.12 5.12-7.68s2.56-5.12 5.12-7.68c2.56-2.56 2.56-5.12 5.12-10.24 0 0 0-2.56 2.56-2.56 5.12-7.68 7.68-15.36 12.8-23.040 0 0 0 0 0 0 28.16-53.76 43.52-112.64 48.64-176.64 0-2.56 0-2.56 0-5.12 0-5.12 0-7.68 0-12.8 0-2.56 0-7.68 0-10.24 0 0 0-2.56 0-2.56 0-2.56 0-5.12 0-7.68 0-5.12 0-7.68 0-12.8 0-2.56 0-7.68 0-10.24s0-7.68 0-10.24c0-5.12 0-10.24-2.56-15.36 0-2.56 0-5.12 0-7.68 0-5.12-2.56-12.8-2.56-17.92 0 0 0-2.56 0-2.56-12.8-74.24-46.080-140.8-89.6-197.12 0 0 0 0 0-2.56-5.12-5.12-7.68-10.24-12.8-15.36 0 0-2.56-2.56-2.56-2.56-2.56-5.12-7.68-7.68-10.24-12.8-2.56-2.56-2.56-2.56-5.12-5.12s-7.68-7.68-10.24-10.24c-2.56-2.56-5.12-5.12-5.12-5.12-2.56-2.56-7.68-5.12-10.24-7.68s-5.12-5.12-7.68-5.12c-2.56-2.56-7.68-5.12-10.24-7.68s-5.12-5.12-7.68-5.12c-2.56-2.56-7.68-5.12-10.24-7.68s-5.12-2.56-7.68-5.12-7.68-5.12-12.8-7.68c-2.56 0-2.56-2.56-5.12-2.56-5.12-2.56-10.24-5.12-15.36-10.24 0 0-2.56 0-2.56-2.56-58.88-33.28-122.88-53.76-194.56-58.88-2.56 0-2.56 0-5.12 0-5.12 0-7.68 0-12.8 0-2.56 0-7.68 0-10.24 0 0 0-2.56 0-2.56 0-2.56 0-5.12 0-7.68 0-5.12 0-7.68 0-12.8 0-2.56 0-7.68 0-10.24 0s-7.68 0-10.24 0c-5.12 0-10.24 0-15.36 2.56-2.56 0-5.12 0-7.68 0-5.12 0-12.8 2.56-17.92 2.56 0 0-2.56 0-2.56 0-74.24 12.8-140.8 46.080-197.12 89.6 0 0 0 0-2.56 0-5.12 5.12-10.24 7.68-15.36 12.8 0 0-2.56 2.56-2.56 2.56-5.12 2.56-7.68 7.68-12.8 10.24-2.56 2.56-2.56 2.56-5.12 5.12s-7.68 7.68-10.24 10.24c-2.56 2.56-5.12 5.12-5.12 5.12-10.24 5.12-15.36 7.68-17.92 10.24zM680.96 284.16c-58.88 48.64-166.4 58.88-232.96 46.080-76.8-12.8-130.56-40.96-125.44-87.040-38.4 20.48-79.36 76.8-69.12 125.44 10.24 40.96 58.88 79.36 89.6 104.96 28.16 74.24 194.56 156.16 371.2 243.2 15.36 7.68 30.72 15.36 43.52 23.040-64 56.32-151.040 92.16-245.76 92.16-212.48 0-384-171.52-384-384s171.52-384 384-384c48.64 0 97.28 10.24 138.24 25.6 84.48 43.52 107.52 130.56 30.72 194.56zM583.68 576c-53.76-25.6-107.52-51.2-156.16-87.040 58.88-51.2 138.24 10.24 156.16 87.040z" />
<glyph unicode="&#xe905;" glyph-name="plotting" d="M960 629.76l-266.24 266.24c-15.36 15.36-43.52 15.36-58.88 0-2.56-2.56-81.92-81.92-51.2-186.88l-122.88-120.32c-66.56 20.48-238.080 53.76-363.52-71.68-15.36-15.36-15.36-43.52 0-58.88l181.76-181.76-215.040-215.040c-15.36-15.36-15.36-43.52 0-58.88 7.68-10.24 17.92-15.36 30.72-15.36s20.48 5.12 30.72 12.8l215.040 215.040 181.76-181.76c7.68-7.68 17.92-12.8 30.72-12.8 10.24 0 20.48 5.12 30.72 12.8 125.44 125.44 92.16 296.96 71.68 363.52l120.32 120.32c104.96-30.72 181.76 48.64 186.88 51.2 15.36 17.92 15.36 43.52-2.56 61.44v0zM780.8 604.16c-15.36 7.68-35.84 5.12-48.64-7.68l-158.72-158.72c-12.8-12.8-15.36-30.72-10.24-46.080 0 0 20.48-48.64 23.040-110.080s-10.24-112.64-38.4-156.16l-179.2 179.2c0 0 0 0 0 0s0 0 0 0l-179.2 179.2c112.64 76.8 258.56 17.92 266.24 15.36 15.36-7.68 33.28-2.56 46.080 10.24l158.72 158.72c12.8 12.8 15.36 30.72 7.68 48.64-15.36 30.72-10.24 61.44 0 81.92l194.56-194.56c-20.48-7.68-48.64-12.8-81.92 0v0zM529.92 376.32c2.56-2.56 15.36-33.28 12.8-66.56 0-20.48-17.92-35.84-35.84-35.84 0 0 0 0 0 0-20.48 0-35.84 17.92-35.84 38.4 0 12.8-5.12 30.72-7.68 33.28-7.68 17.92 0 40.96 17.92 48.64s40.96 0 48.64-17.92v0z" />
<glyph unicode="&#xe906;" glyph-name="measure" d="M51.2 286.72l547.84 547.84 71.68 74.24 302.080-299.52-619.52-622.080-302.080 299.52zM901.12 609.28l-227.84 227.84-35.84-35.84 133.12-133.12-35.84-35.84-133.12 133.12-38.4-38.4 94.72-94.72-35.84-35.84-94.72 94.72-38.4-38.4 94.72-94.72-35.84-35.84-94.72 94.72-35.84-35.84 133.12-133.12-38.4-35.84-133.12 133.12-35.84-35.84 94.72-94.72-35.84-35.84-94.72 92.16-35.84-35.84 94.72-94.72-35.84-35.84-97.28 92.16-35.84-35.84 133.12-133.12-38.4-35.84-133.12 133.12-35.84-35.84 227.84-227.84 550.4 547.84z" />
<glyph unicode="&#xe907;" glyph-name="printscreen" d="M855.040 739.84c30.72 66.56 40.96 130.56-12.8 168.96l-330.24-386.56-38.4-46.080c0 0-64-79.36-84.48-117.76-23.040-38.4-51.2-64-69.12-92.16-15.36-25.6-23.040-30.72-33.28-23.040 0 0-2.56 2.56-2.56 2.56s0 0 0 0c-2.56 2.56-5.12 5.12-10.24 10.24-20.48 15.36-51.2 35.84-79.36 35.84-71.68 0-143.36-81.92-143.36-153.6s79.36-145.92 151.040-145.92c58.88 0 128 56.32 145.92 110.080v0c0 0 56.32 76.8 99.84 135.68 43.52 61.44 66.56 94.72 66.56 94.72l74.24 64c-2.56-2.56 235.52 279.040 266.24 343.040v0 0zM199.68 71.68c-35.84 0-40.96 28.16-40.96 64s7.68 51.2 40.96 51.2c35.84 0 48.64-15.36 48.64-51.2s-12.8-64-48.64-64v0 0zM512 412.16c-20.48 0-30.72 7.68-30.72 25.6s7.68 28.16 28.16 28.16c20.48 0 33.28-10.24 33.28-28.16s-10.24-25.6-30.72-25.6v0 0zM401.92 440.32c20.48 28.16 40.96 53.76 40.96 53.76v0 0l38.4 46.080 7.68 7.68-307.2 360.96c-51.2-38.4-43.52-102.4-12.8-168.96 23.040-48.64 163.84-217.6 232.96-299.52v0 0zM824.32 289.28c-66.56-2.56-43.52-17.92-64-35.84-5.12-2.56-7.68-5.12-10.24-10.24 0 0 0 0 0 0s-2.56-2.56-2.56-2.56c-7.68-7.68-15.36 0-30.72 25.6-17.92 30.72-53.76 56.32-76.8 92.16-5.12 7.68-10.24 15.36-15.36 23.040-2.56-2.56-5.12-5.12-7.68-7.68h-2.56l-2.56-2.56-76.8-71.68c23.040-12.8 43.52-46.080 66.56-79.36 43.52-61.44 89.6-120.32 89.6-120.32v0c15.36-53.76 53.76-110.080 135.68-112.64 110.080-5.12 148.48 79.36 148.48 151.040-2.56 69.12-30.72 151.040-151.040 151.040v0 0zM824.32 71.68c-35.84 0-43.52 28.16-43.52 64s7.68 51.2 43.52 51.2c35.84 0 46.080-28.16 43.52-51.2-2.56-35.84-7.68-64-43.52-64v0 0z" />
<glyph unicode="&#xe908;" glyph-name="TeamEquipment" d="M870.4 23.040c-102.4-51.2-227.84 15.36-243.2 128-2.56 23.040-2.56 43.52 5.12 64 2.56 10.24 0 15.36-5.12 23.040-110.080 107.52-222.72 212.48-332.8 320-7.68 7.68-12.8 7.68-23.040 5.12-94.72-25.6-194.56 30.72-212.48 125.44-7.68 38.4-7.68 71.68 10.24 104.96 7.68 0 10.24-5.12 12.8-7.68 33.28-30.72 64-64 97.28-94.72 28.16-25.6 61.44-28.16 84.48-5.12s23.040 56.32-5.12 81.92c-33.28 35.84-69.12 69.12-107.52 107.52 53.76 20.48 102.4 23.040 153.6-2.56 71.68-35.84 107.52-115.2 84.48-189.44-2.56-12.8 0-17.92 7.68-25.6 110.080-104.96 220.16-212.48 330.24-317.44 7.68-7.68 15.36-10.24 28.16-7.68 66.56 15.36 125.44 0 171.52-48.64 43.52-46.080 56.32-102.4 35.84-163.84-5.12-12.8-7.68-17.92-20.48-5.12-33.28 33.28-66.56 64-99.84 94.72-17.92 17.92-38.4 23.040-61.44 15.36-20.48-7.68-33.28-23.040-35.84-43.52s7.68-38.4 20.48-51.2c33.28-35.84 66.56-71.68 104.96-107.52v0 0zM53.76 92.16c-2.56 20.48 7.68 38.4 23.040 56.32 89.6 89.6 181.76 176.64 271.36 263.68 7.68 7.68 10.24 7.68 17.92 0 35.84-33.28 69.12-66.56 104.96-102.4 7.68-7.68 7.68-10.24 0-17.92-92.16-87.040-181.76-176.64-273.92-263.68-43.52-40.96-112.64-30.72-138.24 20.48-2.56 15.36-5.12 17.92-5.12 43.52v0zM632.32 509.44c-2.56 2.56-5.12 5.12-7.68 7.68-12.8 12.8-28.16 28.16-43.52 40.96-7.68 7.68-7.68 12.8 0 20.48 33.28 30.72 66.56 64 99.84 97.28 28.16 25.6 51.2 51.2 64 84.48 20.48 53.76 56.32 89.6 112.64 107.52 17.92 5.12 33.28 23.040 51.2 20.48s25.6-23.040 40.96-35.84c17.92-12.8 20.48-25.6 7.68-43.52-17.92-25.6-30.72-53.76-43.52-81.92-5.12-10.24-10.24-17.92-23.040-20.48-76.8-30.72-140.8-79.36-194.56-138.24-15.36-17.92-35.84-33.28-51.2-51.2-5.12-2.56-7.68-5.12-12.8-7.68v0z" />
<glyph unicode="&#xe909;" glyph-name="serviceManagement" d="M632.32 5.12c-12.8 0-25.6 5.12-33.28 17.92-20.48 30.72-56.32 48.64-97.28 48.64-35.84 0-71.68-15.36-94.72-43.52-10.24-12.8-30.72-20.48-46.080-12.8-61.44 20.48-117.76 53.76-163.84 99.84-12.8 12.8-17.92 30.72-10.24 48.64 15.36 33.28 12.8 74.24-7.68 107.52-17.92 30.72-51.2 53.76-84.48 58.88-17.92 2.56-30.72 15.36-35.84 33.28-5.12 25.6-7.68 56.32-7.68 84.48 0 33.28 5.12 69.12 12.8 102.4 5.12 17.92 17.92 30.72 35.84 33.28 35.84 2.56 69.12 25.6 89.6 58.88 17.92 33.28 23.040 71.68 7.68 104.96-5.12 15.36-2.56 33.28 12.8 46.080 48.64 43.52 107.52 74.24 171.52 94.72 17.92 5.12 35.84 0 46.080-15.36 20.48-30.72 58.88-48.64 97.28-48.64s71.68 15.36 94.72 43.52c7.68 15.36 25.6 20.48 43.52 15.36 58.88-20.48 115.2-53.76 161.28-97.28 12.8-12.8 17.92-30.72 10.24-48.64-15.36-33.28-12.8-74.24 5.12-110.080 17.92-33.28 51.2-56.32 87.040-58.88 17.92-2.56 33.28-15.36 35.84-33.28 5.12-28.16 7.68-58.88 7.68-87.040 0-33.28-5.12-69.12-12.8-104.96-5.12-17.92-17.92-30.72-38.4-33.28-38.4-2.56-71.68-25.6-92.16-58.88-17.92-33.28-23.040-71.68-7.68-104.96 7.68-17.92 2.56-35.84-10.24-48.64-48.64-40.96-104.96-74.24-166.4-92.16-2.56 2.56-5.12 0-10.24 0v0zM501.76 156.16c53.76 0 107.52-20.48 143.36-58.88 33.28 12.8 64 28.16 89.6 48.64-10.24 48.64-2.56 102.4 23.040 148.48 28.16 48.64 74.24 81.92 125.44 94.72 2.56 20.48 5.12 38.4 5.12 58.88 0 15.36 0 28.16-2.56 43.52-48.64 15.36-92.16 48.64-117.76 94.72-28.16 48.64-35.84 104.96-20.48 156.16-25.6 20.48-56.32 38.4-87.040 51.2-35.84-33.28-87.040-53.76-138.24-53.76-56.32 0-107.52 20.48-143.36 58.88-33.28-12.8-64-30.72-92.16-51.2 10.24-48.64 2.56-102.4-23.040-145.92-28.16-46.080-71.68-81.92-120.32-94.72-2.56-20.48-5.12-38.4-5.12-56.32 0-15.36 0-30.72 2.56-46.080 48.64-15.36 89.6-48.64 115.2-92.16 28.16-46.080 35.84-102.4 23.040-151.040 28.16-23.040 56.32-40.96 89.6-53.76 33.28 28.16 81.92 48.64 133.12 48.64v0zM512 217.6c-81.92 0-158.72 43.52-199.68 115.2-30.72 53.76-38.4 115.2-23.040 174.080s53.76 110.080 107.52 140.8c35.84 20.48 74.24 30.72 115.2 30.72 81.92 0 158.72-43.52 199.68-115.2 64-110.080 25.6-250.88-84.48-314.88-35.84-20.48-74.24-30.72-115.2-30.72v0zM512 593.92c-25.6 0-51.2-7.68-74.24-20.48-33.28-20.48-58.88-51.2-69.12-89.6s-5.12-76.8 15.36-110.080c25.6-46.080 74.24-74.24 128-74.24 25.6 0 51.2 7.68 74.24 20.48 69.12 40.96 94.72 130.56 53.76 199.68-28.16 46.080-76.8 74.24-128 74.24v0z" />
<glyph unicode="&#xe90a;" glyph-name="toolbox" d="M911.36 424.96v-268.8c0-40.96-35.84-76.8-81.92-76.8h-634.88c-46.080 0-81.92 33.28-81.92 76.8v268.8c-35.84 7.68-61.44 35.84-61.44 74.24v128c0 40.96 35.84 76.8 81.92 76.8h168.96v76.8c0 20.48 17.92 38.4 40.96 38.4h337.92c23.040 0 40.96-17.92 40.96-38.4v-76.8h168.96c46.080 0 81.92-33.28 81.92-76.8v-128c0-38.4-25.6-66.56-61.44-74.24v0zM194.56 135.68h637.44c12.8 0 20.48 7.68 20.48 17.92v268.8h-102.4v-71.68c0-15.36-15.36-28.16-30.72-28.16v0c-15.36 0-30.72 12.8-30.72 28.16v71.68h-350.72v-71.68c0-15.36-15.36-28.16-30.72-28.16v0c-15.36 0-30.72 12.8-30.72 28.16v71.68h-102.4v-266.24c0-12.8 7.68-20.48 20.48-20.48v0zM660.48 760.32h-296.96v-56.32h296.96v56.32zM911.36 627.2c0 10.24-7.68 17.92-20.48 17.92h-757.76c-12.8 0-20.48-7.68-20.48-17.92v-128c0-10.24 7.68-17.92 20.48-17.92h143.36v66.56c0 15.36 15.36 28.16 30.72 28.16v0c15.36 0 30.72-12.8 30.72-28.16v-66.56h350.72v66.56c0 15.36 15.36 28.16 30.72 28.16v0c15.36 0 30.72-12.8 30.72-28.16v-66.56h143.36c12.8 0 20.48 7.68 20.48 17.92v128h-2.56z" />
<glyph unicode="&#xe90b;" glyph-name="rangeMeasurement" d="M69.12 202.24l199.68-199.68c7.68-10.24 17.92-15.36 30.72-15.36 23.040 0 40.96 17.92 40.96 40.96 0 10.24-5.12 23.040-12.8 30.72v0l-74.24 74.24 578.56 570.88 71.68-71.68c7.68-7.68 17.92-10.24 28.16-10.24 23.040 0 40.96 17.92 40.96 40.96 0 10.24-2.56 20.48-10.24 28.16v0l-207.36 204.8c-10.24 7.68-20.48 12.8-30.72 12.8-23.040 0-40.96-17.92-40.96-40.96 0-10.24 5.12-23.040 12.8-30.72v0l76.8-76.8-576-570.88-74.24 74.24c-7.68 7.68-17.92 12.8-30.72 12.8-23.040 0-40.96-17.92-40.96-40.96 0-12.8 7.68-25.6 17.92-33.28v0z" />
<glyph unicode="&#xe90c;" glyph-name="pathPlanning" d="M179.2 84.48c53.76 15.36 84.48 66.56 71.68 115.2-5.12 12.8-10.24 25.6-20.48 35.84l107.52 171.52c15.36-2.56 33.28-2.56 51.2 2.56s33.28 12.8 43.52 25.6l115.2-56.32c0-10.24 0-17.92 2.56-28.16 12.8-48.64 69.12-74.24 122.88-58.88s84.48 66.56 71.68 115.2c-2.56 10.24-7.68 17.92-12.8 25.6l125.44 202.24c12.8 0 23.040 0 35.84 5.12 53.76 15.36 84.48 66.56 71.68 115.2s-69.12 74.24-122.88 58.88v0c-53.76-15.36-84.48-66.56-71.68-115.2 2.56-12.8 10.24-23.040 17.92-33.28l-122.88-197.12c-15.36 2.56-30.72 2.56-46.080-2.56s-28.16-12.8-40.96-20.48l-115.2 53.76c0 7.68 0 15.36-2.56 23.040-12.8 48.64-69.12 74.24-122.88 58.88s-84.48-66.56-71.68-115.2c2.56-7.68 5.12-15.36 10.24-20.48l-115.2-184.32c-10.24 0-23.040 0-33.28-5.12-53.76-12.8-84.48-64-71.68-112.64 15.36-46.080 69.12-74.24 122.88-58.88zM163.84 135.68c-23.040-5.12-46.080 5.12-51.2 25.6s7.68 40.96 30.72 48.64c23.040 5.12 46.080-5.12 51.2-25.6s-7.68-43.52-30.72-48.64v0zM322.56 483.84c-5.12 20.48 7.68 40.96 30.72 48.64 23.040 5.12 46.080-5.12 51.2-25.6s-7.68-40.96-30.72-48.64c-20.48-5.12-43.52 7.68-51.2 25.6v0zM660.48 340.48c-23.040-5.12-46.080 5.12-51.2 25.6s7.68 40.96 30.72 48.64c23.040 5.12 46.080-5.12 51.2-25.6 5.12-23.040-7.68-43.52-30.72-48.64v0zM880.64 688.64c-23.040-5.12-46.080 5.12-51.2 25.6s7.68 40.96 30.72 48.64c23.040 5.12 46.080-5.12 51.2-25.6 5.12-23.040-7.68-43.52-30.72-48.64v0z" />
<glyph unicode="&#xe90d;" glyph-name="planimetering" d="M302.080 693.76l-17.92 17.92-35.84-35.84 17.92-17.92 471.040-473.6 35.84 35.84-17.92 17.92-453.12 455.68zM906.24 184.32v527.36h66.56v197.12h-197.12v-66.56h-527.36v66.56h-197.12v-197.12h66.56v-524.8h-66.56v-199.68h197.12v66.56h524.8v-66.56h199.68v197.12h-66.56zM839.68 842.24h66.56v-66.56h-66.56v66.56zM117.76 842.24h66.56v-64h-66.56v64zM184.32 53.76h-66.56v66.56h66.56v-66.56zM775.68 184.32v-66.56h-527.36v66.56h-64v527.36h66.56v64h524.8v-66.56h66.56v-524.8h-66.56zM906.24 53.76h-66.56v66.56h66.56v-66.56z" />
<glyph unicode="&#xe90e;" glyph-name="clear" d="M176.64 542.72v-517.12c0-20.48-15.36-35.84-35.84-35.84s-35.84 15.36-35.84 35.84v517.12c0 20.48 15.36 35.84 35.84 35.84s35.84-17.92 35.84-35.84v0 0zM919.040 542.72v-517.12c0-20.48-15.36-35.84-35.84-35.84s-35.84 15.36-35.84 35.84v517.12c0 20.48 15.36 35.84 35.84 35.84s35.84-17.92 35.84-35.84v0 0zM550.4 181.76v-156.16c0-20.48-15.36-35.84-35.84-35.84s-35.84 15.36-35.84 35.84v156.16c0 20.48 15.36 35.84 35.84 35.84 17.92 0 35.84-17.92 35.84-35.84v0 0zM353.28 138.24v-112.64c0-20.48-15.36-35.84-35.84-35.84s-35.84 15.36-35.84 35.84v112.64c0 20.48 15.36 35.84 35.84 35.84s35.84-15.36 35.84-35.84v0 0zM742.4 138.24v-112.64c0-20.48-15.36-35.84-35.84-35.84s-35.84 15.36-35.84 35.84v112.64c0 20.48 15.36 35.84 35.84 35.84s35.84-15.36 35.84-35.84v0 0zM883.2-10.24h-742.4c-20.48 0-35.84 15.36-35.84 35.84s15.36 35.84 35.84 35.84h742.4c20.48 0 35.84-15.36 35.84-35.84s-15.36-35.84-35.84-35.84v0 0zM883.2 286.72h-742.4c-20.48 0-35.84 15.36-35.84 35.84s17.92 35.84 35.84 35.84h742.4c20.48 0 35.84-15.36 35.84-35.84s-15.36-35.84-35.84-35.84v0 0zM596.48 834.56h-168.96c-20.48 0-35.84 15.36-35.84 35.84s15.36 35.84 35.84 35.84h168.96c20.48 0 35.84-15.36 35.84-35.84 2.56-17.92-15.36-35.84-35.84-35.84v0 0zM427.52 506.88h-286.72c-20.48 0-35.84 15.36-35.84 35.84s15.36 35.84 35.84 35.84h286.72c20.48 0 35.84-15.36 35.84-35.84s-15.36-35.84-35.84-35.84v0 0zM883.2 506.88h-286.72c-20.48 0-35.84 15.36-35.84 35.84s15.36 35.84 35.84 35.84h286.72c20.48 0 35.84-15.36 35.84-35.84s-15.36-35.84-35.84-35.84v0 0zM634.88 870.4v-330.24c0-20.48-15.36-35.84-35.84-35.84s-35.84 15.36-35.84 35.84v330.24c0 20.48 15.36 35.84 35.84 35.84 17.92 0 35.84-15.36 35.84-35.84v0 0zM463.36 870.4v-330.24c0-20.48-15.36-35.84-35.84-35.84s-35.84 15.36-35.84 35.84v330.24c0 20.48 15.36 35.84 35.84 35.84s35.84-15.36 35.84-35.84v0 0z" />
<glyph unicode="&#xe90f;" glyph-name="channelInfo" d="M51.2 783.36h140.8v-148.48h-140.8v148.48zM371.2 783.36h601.6v-148.48h-637.44v148.48h35.84zM51.2 522.24h140.8v-148.48h-140.8v148.48zM335.36 522.24h637.44v-148.48h-637.44v148.48zM51.2 261.12h140.8v-148.48h-140.8v148.48zM335.36 261.12h637.44v-148.48h-637.44v148.48z" />
<glyph unicode="&#xe910;" glyph-name="fullScreen" d="M921.6-10.24h-189.44c-25.6 0-46.080 20.48-46.080 46.080s20.48 46.080 46.080 46.080h74.24l-232.96 238.080c-7.68 7.68-12.8 20.48-12.8 33.28 0 25.6 20.48 46.080 46.080 46.080 12.8 0 25.6-5.12 33.28-12.8v0l235.52-235.52v74.24c0 25.6 20.48 46.080 46.080 46.080s46.080-20.48 46.080-46.080v-186.88c2.56-25.6-20.48-48.64-46.080-48.64v0zM921.6 622.080c-25.6 0-46.080 20.48-46.080 46.080v76.8l-235.52-235.52c-7.68-7.68-20.48-12.8-33.28-12.8-25.6 0-46.080 20.48-46.080 46.080 0 12.8 5.12 25.6 12.8 33.28v0l235.52 235.52h-74.24c-25.6 0-46.080 20.48-46.080 46.080s20.48 46.080 46.080 46.080h186.88c25.6 0 46.080-20.48 46.080-46.080v-189.44c2.56-25.6-20.48-46.080-46.080-46.080v0zM450.56 320l-235.52-235.52h74.24c25.6 0 46.080-20.48 46.080-46.080s-20.48-46.080-46.080-46.080h-186.88c-25.6 0-46.080 20.48-46.080 46.080v189.44c0 25.6 20.48 46.080 46.080 46.080s46.080-20.48 46.080-46.080v-74.24l235.52 235.52c7.68 7.68 20.48 12.8 33.28 12.8 25.6 0 46.080-20.48 46.080-46.080 2.56-15.36-2.56-25.6-12.8-35.84v0 0zM417.28 494.080c-12.8 0-23.040 5.12-33.28 12.8v0l-235.52 238.080v-74.24c0-25.6-20.48-46.080-46.080-46.080s-46.080 20.48-46.080 46.080v186.88c-2.56 25.6 20.48 48.64 46.080 48.64h189.44c25.6 0 46.080-20.48 46.080-46.080s-20.48-46.080-46.080-46.080h-76.8l235.52-235.52c7.68-7.68 12.8-20.48 12.8-33.28 2.56-28.16-20.48-51.2-46.080-51.2v0z" />
<glyph unicode="&#xe911;" glyph-name="peopleHeat" d="M460.8 353.28c0 10.24 0 20.48 0 30.72 12.8 12.8 40.96 43.52 51.2 87.040 10.24 5.12 20.48 15.36 25.6 30.72 7.68 20.48 7.68 48.64-7.68 66.56 0 0 0 0 0 0 2.56 25.6 10.24 94.72-33.28 138.24-25.6 25.6-64 46.080-115.2 46.080s-87.040-20.48-115.2-46.080c-43.52-43.52-35.84-112.64-33.28-138.24 0 0 0 0 0 0-10.24-17.92-10.24-46.080-2.56-66.56 5.12-15.36 15.36-25.6 25.6-30.72 10.24-43.52 38.4-74.24 51.2-87.040 0-10.24 0-20.48 0-28.16 0-102.4-256-79.36-256-184.32v-30.72h665.6v28.16c0 107.52-256 84.48-256 184.32v0zM775.68 368.64c0 7.68 0 15.36 0 23.040 10.24 10.24 30.72 33.28 38.4 66.56 7.68 2.56 15.36 12.8 20.48 23.040 5.12 15.36 7.68 35.84-5.12 51.2 0 0 0 0 0 0 2.56 20.48 7.68 71.68-25.6 104.96-20.48 20.48-48.64 35.84-87.040 35.84s-66.56-15.36-87.040-35.84c-33.28-33.28-28.16-84.48-25.6-104.96 0 0 0 0 0 0-12.8-12.8-12.8-35.84-5.12-51.2 5.12-10.24 12.8-17.92 20.48-23.040 7.68-33.28 30.72-56.32 38.4-66.56 0-7.68 0-15.36 0-23.040 0-28.16-28.16-46.080-61.44-58.88-30.72-10.24 48.64-17.92 104.96-43.52 48.64-23.040 74.24-61.44 74.24-61.44h194.56v20.48c0 81.92-194.56 66.56-194.56 143.36v0z" />
<glyph unicode="&#xe912;" glyph-name="realTimeMonitor" d="M936.96 53.76h-849.92c-17.92 0-33.28 15.36-33.28 33.28v721.92c0 17.92 15.36 33.28 33.28 33.28h849.92c17.92 0 33.28-15.36 33.28-33.28v-719.36c0-20.48-15.36-35.84-33.28-35.84zM903.68 714.24h-783.36v-583.68h785.92v583.68zM286.72 468.48c7.68 10.24 20.48 17.92 33.28 17.92s25.6-5.12 33.28-15.36l81.92-107.52 92.16 181.76c5.12 12.8 17.92 20.48 33.28 23.040 12.8 2.56 28.16-5.12 35.84-15.36l81.92-107.52 92.16 148.48c10.24 20.48 33.28 28.16 53.76 17.92s28.16-33.28 17.92-53.76l-120.32-207.36c-5.12-12.8-17.92-20.48-33.28-23.040-12.8 0-28.16 5.12-35.84 15.36l-81.92 107.52-94.72-181.76c-5.12-12.8-17.92-20.48-33.28-23.040 0 0-2.56 0-2.56 0-12.8 0-25.6 5.12-33.28 15.36l-87.040 115.2-48.64-74.24c-12.8-17.92-38.4-23.040-56.32-10.24s-23.040 35.84-10.24 56.32l81.92 120.32z" />
<glyph unicode="&#xe913;" glyph-name="videoMonitor" d="M785.92 709.12c0 23.040-20.48 43.52-46.080 43.52h-640c-25.6 0-46.080-20.48-46.080-43.52v-524.8c0-23.040 20.48-43.52 46.080-43.52h642.56c25.6 0 46.080 20.48 46.080 43.52v153.6l184.32-174.080v568.32l-184.32-174.080v151.040h-2.56zM327.68 294.4v307.2l253.44-153.6-253.44-153.6z" />
<glyph unicode="&#xe914;" glyph-name="dataCollection" d="M872.96 286.72v161.28c0 17.92-15.36 33.28-33.28 33.28h-294.4v130.56h61.44c20.48 0 38.4 15.36 38.4 35.84v184.32c0 20.48-17.92 35.84-38.4 35.84h-186.88c-20.48 0-38.4-15.36-38.4-35.84v-184.32c0-20.48 17.92-35.84 38.4-35.84h61.44v-130.56h-296.96c-17.92 0-33.28-15.36-33.28-33.28v-163.84h-61.44c-20.48 2.56-38.4-15.36-38.4-35.84v-184.32c0-20.48 17.92-35.84 38.4-35.84h186.88c20.48 0 38.4 15.36 38.4 35.84v184.32c0 20.48-17.92 35.84-38.4 35.84h-58.88v130.56h263.68v-130.56h-61.44c-20.48 0-38.4-15.36-38.4-35.84v-184.32c0-20.48 17.92-35.84 38.4-35.84h186.88c20.48 0 38.4 15.36 38.4 35.84v184.32c0 20.48-17.92 35.84-38.4 35.84h-61.44v130.56h263.68v-130.56h-61.44c-20.48 0-38.4-15.36-38.4-35.84v-184.32c0-20.48 17.92-35.84 38.4-35.84h186.88c20.48 0 38.4 15.36 38.4 35.84v184.32c0 20.48-17.92 35.84-38.4 35.84h-61.44v2.56zM445.44 803.84h130.56v-130.56h-130.56v130.56zM248.32 92.16h-130.56v130.56h130.56v-130.56zM578.56 92.16h-130.56v130.56h130.56v-130.56zM906.24 92.16h-130.56v130.56h130.56v-130.56z" />
<glyph unicode="&#xe915;" glyph-name="dataVisualization" horiz-adv-x="1408" d="M245.76-10.24v765.44h153.6v-76.8h-76.8v-97.28l145.92-69.12c-20.48 38.4-33.28 81.92-33.28 128 0 148.48 120.32 268.8 268.8 268.8s268.8-120.32 268.8-268.8c0-48.64-12.8-94.72-35.84-133.12v0l-25.6-46.080 176.64-69.12v286.72h-74.24v76.8h151.040v-765.44h-919.040zM322.56 496.64v-430.080h161.28l133.12 184.32-84.48 145.92-209.92 99.84zM701.44 829.44c-104.96 0-192-84.48-192-192 0-35.84 10.24-69.12 28.16-97.28v0l28.16-48.64 135.68-235.52 135.68 235.52 28.16 48.64c17.92 28.16 28.16 61.44 28.16 97.28 0 107.52-84.48 192-192 192zM1085.44 309.76l-215.040 81.92-168.96-289.28-43.52 74.24-81.92-112.64h506.88v245.76zM704 524.8c-64 0-115.2 51.2-115.2 115.2s51.2 115.2 115.2 115.2c64 0 115.2-51.2 115.2-115.2s-51.2-115.2-115.2-115.2zM704 678.4c-20.48 0-38.4-17.92-38.4-38.4s17.92-38.4 38.4-38.4c20.48 0 38.4 17.92 38.4 38.4s-17.92 38.4-38.4 38.4z" />
<glyph unicode="&#xe916;" glyph-name="weather" d="M473.6 634.88c12.8-12.8 35.84-12.8 48.64 0s12.8 30.72 0 43.52l-33.28 28.16c-12.8 12.8-35.84 12.8-48.64 0s-12.8-30.72 0-43.52l33.28-28.16zM660.48 686.080c17.92 0 33.28 12.8 33.28 30.72v43.52c0 17.92-15.36 30.72-33.28 30.72s-33.28-12.8-33.28-30.72v-40.96c0-17.92 15.36-33.28 33.28-33.28v0zM847.36 634.88l33.28 28.16c12.8 12.8 12.8 30.72 0 43.52s-35.84 12.8-48.64 0l-33.28-28.16c-12.8-12.8-12.8-30.72 0-43.52s35.84-12.8 48.64 0v0zM783.36 401.92c30.72 28.16 48.64 66.56 48.64 107.52 0 87.040-76.8 156.16-171.52 156.16-66.56 0-122.88-33.28-151.040-81.92-30.72 12.8-64 20.48-99.84 20.48-102.4 0-186.88-56.32-222.72-138.24-76.8-28.16-130.56-94.72-130.56-174.080 0-87.040 64-158.72 151.040-179.2 5.12-5.12 12.8-7.68 20.48-7.68h28.16c2.56 0 2.56 0 5.12 0 0 0 2.56 0 2.56 0h396.8c0 0 2.56 0 2.56 0 2.56 0 5.12 0 10.24 0 99.84 0 181.76 74.24 181.76 166.4 0 53.76-28.16 99.84-71.68 130.56v0zM716.8 432.64c-15.36 2.56-30.72 5.12-46.080 5.12-10.24 0-20.48 0-28.16-2.56-12.8 46.080-38.4 84.48-74.24 115.2 15.36 33.28 51.2 53.76 92.16 53.76 56.32 0 102.4-40.96 102.4-94.72 0-30.72-17.92-61.44-46.080-76.8v0zM934.4 542.72h-46.080c-17.92 0-33.28-12.8-33.28-30.72s15.36-30.72 33.28-30.72h46.080c17.92 0 33.28 12.8 33.28 30.72s-12.8 30.72-33.28 30.72v0z" />
<glyph unicode="&#xe917;" glyph-name="pullLeft" d="M112.64 806.4c33.28 0 61.44-30.72 61.44-64v-227.84l235.52 245.76c23.040 25.6 64 25.6 87.040 0s23.040-66.56 0-92.16l-151.040-156.16h563.2c33.28 0 61.44-30.72 61.44-64 0-35.84-28.16-64-61.44-64h-563.2l151.040-156.16c23.040-25.6 23.040-66.56 0-92.16s-64-25.6-87.040 0l-235.52 248.32v-227.84c0-35.84-28.16-64-61.44-64-35.84-2.56-61.44 25.6-61.44 61.44v588.8c0 35.84 25.6 64 61.44 64v0z" />
<glyph unicode="&#xe918;" glyph-name="dangerousSource" d="M796.16 69.12c-15.36-28.16 2.56-81.92-48.64-71.68-25.6 5.12-7.68 48.64-71.68 76.8 0 0-2.56 2.56-2.56 2.56-48.64 23.040-102.4 46.080-158.72 66.56-66.56-25.6-133.12-51.2-189.44-76.8-25.6-12.8-40.96-23.040-46.080-40.96-7.68-20.48-5.12-53.76-38.4-35.84-38.4 20.48-15.36 69.12-25.6 99.84-10.24 28.16-61.44 56.32-17.92 79.36 17.92 10.24 35.84-20.48 84.48-15.36 35.84 10.24 74.24 20.48 112.64 30.72-35.84 12.8-71.68 23.040-104.96 30.72-28.16 5.12-46.080 7.68-64 0-20.48-7.68-43.52-35.84-56.32 0-12.8 38.4 43.52 58.88 58.88 87.040s-2.56 79.36 48.64 69.12c20.48-5.12 10.24-35.84 51.2-64 58.88-28.16 125.44-56.32 192-81.92 51.2 17.92 102.4 38.4 148.48 58.88 0 0 0 2.56 2.56 2.56 40.96 23.040 61.44 30.72 71.68 53.76 7.68 20.48 5.12 56.32 40.96 35.84 38.4-20.48 15.36-71.68 25.6-102.4s64-58.88 17.92-81.92c-23.040-12.8-43.52 30.72-110.080 10.24-2.56 0-2.56 0-5.12 0-23.040-5.12-46.080-12.8-71.68-20.48 23.040-7.68 43.52-15.36 64-20.48 0 0 2.56 0 2.56 0 46.080-7.68 69.12-15.36 92.16-5.12s46.080 38.4 56.32 0c12.8-35.84-43.52-56.32-58.88-87.040zM647.68 378.88v-10.24c0-17.92-5.12-30.72-17.92-43.52-12.8-10.24-25.6-17.92-43.52-20.48-17.92 0-28.16 2.56-38.4 7.68-12.8-10.24-28.16-12.8-43.52-12.8-17.92 0-30.72 5.12-46.080 15.36-7.68-7.68-23.040-10.24-40.96-10.24s-30.72 7.68-43.52 17.92c-12.8 10.24-17.92 25.6-17.92 43.52v12.8c-61.44 17.92-110.080 46.080-143.36 84.48s-51.2 81.92-51.2 133.12c0 12.8 0 23.040 2.56 35.84 12.8 76.8 48.64 140.8 107.52 192 69.12 58.88 145.92 84.48 238.080 84.48s168.96-25.6 232.96-79.36c61.44-51.2 97.28-115.2 110.080-192 2.56-12.8 2.56-25.6 2.56-35.84 0-51.2-17.92-97.28-53.76-135.68-35.84-40.96-87.040-69.12-153.6-87.040zM430.080 683.52c-17.92 17.92-40.96 28.16-66.56 28.16s-48.64-10.24-66.56-28.16c-17.92-17.92-28.16-40.96-28.16-69.12 0-25.6 10.24-48.64 28.16-69.12 17.92-17.92 40.96-28.16 66.56-28.16s48.64 10.24 66.56 28.16c17.92 17.92 28.16 40.96 28.16 69.12s-10.24 51.2-28.16 69.12zM535.040 491.52c-7.68 12.8-15.36 17.92-25.6 17.92-7.68 0-17.92-5.12-25.6-17.92-7.68-10.24-12.8-23.040-12.8-33.28 0-7.68 2.56-12.8 7.68-17.92 7.68-7.68 17.92-12.8 33.28-12.8 23.040 0 35.84 7.68 35.84 25.6-2.56 12.8-5.12 25.6-12.8 38.4zM714.24 683.52c-17.92 17.92-40.96 28.16-66.56 28.16s-48.64-10.24-66.56-28.16c-17.92-17.92-28.16-40.96-28.16-69.12 0-25.6 10.24-48.64 28.16-69.12 17.92-17.92 40.96-28.16 66.56-28.16s48.64 10.24 66.56 28.16c17.92 17.92 28.16 40.96 28.16 69.12s-10.24 51.2-28.16 69.12z" />
<glyph unicode="&#xe919;" glyph-name="layerManager" d="M51.2 616.96l460.8 240.64 460.8-240.64-460.8-240.64-460.8 240.64zM512 128l373.76 194.56 87.040-46.080-460.8-238.080-460.8 240.64 87.040 46.080 373.76-197.12zM512 296.96l373.76 194.56 87.040-43.52-460.8-240.64-460.8 240.64 87.040 46.080 373.76-197.12zM801.28 616.96l-289.28 151.040-289.28-151.040 289.28-148.48 289.28 148.48z" />
<glyph unicode="&#xe91a;" glyph-name="pullSouth" d="M512 217.6c-20.48 0-38.4 7.68-53.76 20.48l-384 330.24c-30.72 25.6-30.72 66.56 0 94.72 30.72 25.6 79.36 25.6 107.52 0l330.24-286.72 330.24 284.16c30.72 25.6 79.36 25.6 107.52 0 30.72-25.6 30.72-66.56 0-94.72l-384-330.24c-15.36-12.8-33.28-17.92-53.76-17.92v0z" />
<glyph unicode="&#xe91b;" glyph-name="trangleSouth" d="M512 208.96l-319.313 478.080h640.411l-321.102-478.080z" />
<glyph unicode="&#xe91c;" glyph-name="emergencyDisposal" d="M593.92 752.64l-304.64-345.6 171.52-38.4-33.28-225.28 302.080 345.6-171.52 38.4 35.84 225.28zM512 906.24c-253.44 0-458.24-204.8-458.24-458.24s204.8-458.24 458.24-458.24c253.44 0 458.24 204.8 458.24 458.24s-204.8 458.24-458.24 458.24zM512 66.56c-209.92 0-381.44 171.52-381.44 381.44s171.52 381.44 381.44 381.44c209.92 0 381.44-171.52 381.44-381.44s-171.52-381.44-381.44-381.44z" />
<glyph unicode="&#xe91d;" glyph-name="pullRight" d="M742.4 448c0 20.48-7.68 38.4-20.48 53.76l-327.68 384c-25.6 30.72-66.56 30.72-92.16 0s-25.6-79.36 0-107.52l281.6-330.24-281.6-330.24c-25.6-30.72-25.6-79.36 0-107.52 25.6-30.72 66.56-30.72 92.16 0l327.68 384c12.8 15.36 20.48 33.28 20.48 53.76v0z" />
<glyph unicode="&#xe91e;" glyph-name="close" d="M286.062 175.537l-45.307 45.311c-12.512 12.512-12.512 32.802-0.002 45.309l181.239 181.239-181.237 181.232c-12.512 12.514-12.512 32.802 0 45.314l45.307 45.307c12.514 12.51 32.797 12.51 45.311-0.002l181.232-181.237 181.237 181.234c12.512 12.514 32.802 12.512 45.311 0l45.314-45.311c12.505-12.505 12.507-32.797-0.005-45.307l-181.234-181.234 181.237-181.237c12.51-12.507 12.507-32.797 0.002-45.307l-45.314-45.309c-12.51-12.514-32.797-12.514-45.309 0l-181.234 181.234-181.237-181.237c-12.514-12.514-32.797-12.514-45.311 0z" />
<glyph unicode="&#xe91f;" glyph-name="warnInfo" d="M936.96 440.32l-110.080-17.92c-20.48-2.56-40.96 10.24-43.52 30.72s10.24 38.4 30.72 40.96l110.080 15.36c20.48 2.56 40.96-10.24 43.52-30.72 5.12-17.92-10.24-35.84-30.72-38.4zM747.52 619.52c-12.8-15.36-38.4-17.92-53.76-2.56-7.68 5.12-10.24 12.8-12.8 23.040s2.56 20.48 10.24 30.72l74.24 81.92c12.8 15.36 38.4 17.92 53.76 2.56 15.36-12.8 17.92-35.84 2.56-51.2l-74.24-84.48zM747.52 189.44h-471.040v186.88c0 125.44 104.96 225.28 232.96 225.28h2.56c128 0 232.96-102.4 232.96-225.28v-186.88zM517.12 680.96c-17.92 0-33.28 12.8-35.84 30.72 0 2.56 0 5.12 0 7.68v110.080c0 20.48 17.92 35.84 38.4 35.84s38.4-17.92 38.4-38.4v-110.080c-2.56-17.92-20.48-35.84-40.96-35.84zM284.16 629.76l-69.12 84.48c-5.12 5.12-7.68 10.24-10.24 17.92 0 12.8 5.12 25.6 15.36 33.28 15.36 12.8 40.96 10.24 53.76-5.12l69.12-84.48c12.8-15.36 10.24-38.4-5.12-51.2-17.92-12.8-40.96-10.24-53.76 5.12zM238.080 465.92c-5.12-20.48-23.040-33.28-43.52-28.16l-110.080 20.48c-15.36 2.56-28.16 15.36-30.72 30.72 0 5.12 0 7.68 0 12.8 5.12 20.48 23.040 33.28 43.52 28.16l110.080-20.48c23.040-2.56 35.84-23.040 30.72-43.52zM235.52 135.68h540.16c30.72 0 53.76-23.040 53.76-53.76 0-28.16-23.040-53.76-53.76-53.76h-540.16c-30.72 0-53.76 23.040-53.76 53.76s23.040 53.76 53.76 53.76z" />
<glyph unicode="&#xe920;" glyph-name="keyArea" d="M936.96 691.2c17.92 0 33.28 15.36 33.28 33.28v148.48c0 17.92-15.36 33.28-33.28 33.28h-151.040c-17.92 0-33.28-15.36-33.28-33.28v-40.96h-87.040c-2.56 0-5.12 0-10.24 0h-386.56v40.96c0 17.92-15.36 33.28-33.28 33.28h-148.48c-17.92 0-33.28-15.36-33.28-33.28v-151.040c0-17.92 15.36-33.28 33.28-33.28h40.96v-486.4h-40.96c-17.92 0-33.28-15.36-33.28-33.28v-151.040c0-17.92 15.36-33.28 33.28-33.28h151.040c17.92 0 33.28 15.36 33.28 33.28v46.080h486.4v-43.52c0-17.92 15.36-33.28 33.28-33.28h151.040c17.92 0 33.28 15.36 33.28 33.28v151.040c0 17.92-15.36 33.28-33.28 33.28h-46.080v486.4h40.96zM829.44 522.24v-115.2l-268.8-271.36c-2.56-2.56-2.56-2.56-5.12-5.12h-117.76l391.68 391.68zM829.44 691.2v-76.8l-483.84-483.84h-76.8v28.16l532.48 532.48h28.16zM755.2 765.44v-28.16l-532.48-532.48h-28.16v79.36l481.28 481.28h79.36zM117.76 755.2v87.040h87.040v-87.040h-87.040zM194.56 583.68v107.52h43.52c17.92 0 33.28 15.36 33.28 33.28v40.96h107.52l-184.32-181.76zM194.56 376.32v117.76c0 0 2.56 2.56 2.56 2.56l268.8 268.8h117.76l-389.12-389.12zM204.8 138.24v-84.48h-84.48v84.48h84.48zM829.44 314.88v-110.080h-43.52c-17.92 0-33.28-15.36-33.28-33.28v-43.52h-110.080l186.88 186.88zM819.2 53.76v84.48h84.48v-84.48h-84.48zM906.24 842.24v-87.040h-87.040v87.040h87.040z" />
<glyph unicode="&#xe921;" glyph-name="keyLine" d="M785.92 225.28c-33.28 0-61.44-12.8-81.92-33.28l-360.96 194.56c7.68 15.36 12.8 35.84 12.8 56.32 0 23.040-7.68 46.080-17.92 64l366.080 197.12c20.48-20.48 51.2-33.28 81.92-33.28 66.56 0 117.76 53.76 117.76 117.76s-53.76 117.76-117.76 117.76c-66.56 0-117.76-53.76-117.76-117.76 0-10.24 0-20.48 2.56-28.16l-384-207.36c-15.36 7.68-30.72 10.24-48.64 10.24-66.56 0-117.76-53.76-117.76-117.76s53.76-117.76 117.76-117.76c20.48 0 40.96 5.12 56.32 15.36l376.32-202.24c-2.56-10.24-2.56-17.92-2.56-28.16 0-64 53.76-117.76 117.76-117.76 66.56 0 117.76 53.76 117.76 117.76s-53.76 112.64-117.76 112.64zM785.92 842.24c30.72 0 53.76-23.040 53.76-53.76s-23.040-53.76-53.76-53.76c-30.72 0-53.76 23.040-53.76 53.76s23.040 53.76 53.76 53.76zM184.32 442.88c0 30.72 23.040 53.76 53.76 53.76s53.76-23.040 53.76-53.76c0-30.72-23.040-53.76-53.76-53.76s-53.76 25.6-53.76 53.76zM785.92 53.76c-30.72 0-53.76 23.040-53.76 53.76s23.040 53.76 53.76 53.76c30.72 0 53.76-23.040 53.76-53.76s-23.040-53.76-53.76-53.76z" />
<glyph unicode="&#xe922;" glyph-name="thematicPavilion" d="M670.72 627.2l-151.040-148.48-120.32 120.32-186.88-181.76 46.080-43.52 140.8 138.24 120.32-120.32 194.56 194.56 53.76-51.2 56.32 204.8-207.36-53.76 53.76-58.88zM936.96 888.32h-849.92c-20.48 0-35.84-15.36-35.84-35.84v-593.92c0-20.48 15.36-35.84 35.84-35.84h161.28l-143.36-143.36c-12.8-12.8-17.92-40.96-2.56-58.88 17.92-17.92 43.52-17.92 61.44 0l204.8 202.24h284.16l204.8-202.24c20.48-20.48 46.080-17.92 61.44-2.56 12.8 12.8 20.48 38.4 0 58.88l-145.92 145.92h161.28c20.48 0 35.84 15.36 35.84 35.84v593.92c0 20.48-15.36 35.84-33.28 35.84v0zM135.68 307.2v499.2h752.64v-499.2h-752.64z" />
<glyph unicode="&#xe923;" glyph-name="thematicCharting" d="M110.080 56.32l81.92 266.24 28.16 28.16 189.44-189.44-28.16-28.16-271.36-76.8zM250.88 381.44l371.2 373.76 189.44-192-371.2-371.2-189.44 189.44zM898.56 762.88v0 0c43.52-43.52 43.52-69.12 0-112.64l-53.76-53.76-189.44 189.44 53.76 53.76c43.52 43.52 69.12 43.52 112.64 0l76.8-76.8zM378.88 834.56l94.72-94.72 30.72 30.72-104.96 104.96c-43.52 43.52-115.2 43.52-158.72 0l-189.44-189.44 33.28-33.28 181.76 181.76c43.52 43.52 69.12 43.52 112.64 0zM163.84 637.44l64 64 30.72-30.72-64-64 33.28-33.28 94.72 94.72 30.72-30.72-94.72-94.72 10.24-10.24-30.72-30.72-153.6 153.6 30.72 30.72 48.64-48.64zM606.72 194.56l-15.36 12.8-30.72-30.72 189.44-189.44 30.72 28.16 158.72 158.72c43.52 43.52 43.52 115.2 0 158.72l-110.080 110.080-30.72-30.72 99.84-99.84c43.52-43.52 43.52-69.12 0-112.64l-148.48-148.48-143.36 143.36zM732.16 256l-94.72-94.72-30.72 30.72 94.72 94.72 30.72-30.72zM750.080 209.92l30.72-30.72-79.36-79.36-30.72 30.72 79.36 79.36z" />
<glyph unicode="&#xe924;" glyph-name="search" horiz-adv-x="1408" d="M1144.32 115.2l-220.16 207.36c43.52 58.88 66.56 130.56 66.56 204.8 0 94.72-38.4 186.88-110.080 253.44-71.68 69.12-163.84 104.96-263.68 104.96s-194.56-38.4-263.68-104.96c-71.68-69.12-110.080-158.72-110.080-253.44s38.4-186.88 110.080-253.44c71.68-69.12 163.84-104.96 263.68-104.96 76.8 0 151.040 23.040 215.040 64l220.16-207.36c12.8-12.8 30.72-17.92 46.080-17.92 17.92 0 33.28 5.12 46.080 17.92 25.6 25.6 25.6 64 0 89.6v0 0zM376.32 529.92c0 128 110.080 232.96 243.2 232.96s243.2-104.96 243.2-232.96c0-128-110.080-232.96-243.2-232.96-135.68 0-243.2 104.96-243.2 232.96v0z" />
<glyph unicode="&#xe925;" glyph-name="pullWest" d="M281.6 448c0-19.2 6.4-38.4 19.2-54.4l326.4-384c25.6-32 67.2-32 92.8 0s25.6 80 0 108.8l-278.4 329.6 281.6 329.6c25.6 32 25.6 80 0 108.8-25.6 32-67.2 32-92.8 0l-326.4-384c-12.8-16-22.4-35.2-22.4-54.4v0z" />
<glyph unicode="&#xe926;" glyph-name="ok" d="M511.047 902.869c-250.965 0-454.415-203.449-454.415-454.415s203.449-454.415 454.415-454.415 454.415 203.449 454.415 454.415-203.45 454.415-454.415 454.415zM526.732 287.796l-80.329-80.329-214.211 214.212 80.329 80.329 133.883-133.883 263.17 263.17 80.329-80.329-263.171-263.17z" />
<glyph unicode="&#xe927;" glyph-name="edit" d="M794.776 682.091l-131.025 131.020 65.54 65.511c21.716 21.686 56.878 21.686 78.593 0l52.404-52.403c21.716-21.715 21.716-56.931 0-78.645l-65.511-65.483zM414.134 301.466l-131.026 131.020 356.198 353.399 131.024-131.021-356.196-353.398zM177.849 194.017l79.718 212.93 129.927-129.953-209.647-82.977zM766.253 149.238c18.34 0 33.192-14.852 33.192-33.192 0-18.311-14.852-33.163-33.192-33.163h-586.855c-18.311 0-33.164 14.851-33.164 33.163 0 18.34 14.853 33.192 33.164 33.192h586.855z" />
<glyph unicode="&#xe928;" glyph-name="delete" horiz-adv-x="880" d="M653.827 601.515h-17.866v-447.488h-58.735v447.488h-98.032v-447.488h-58.787v447.488h-97.974v-447.488h-58.835v447.488h-37.419c-44.255 0-80.203 0.641-80.203 0v-467.573c0-43.030 35.887-77.892 80.203-77.892h427.641c44.26 0 80.156 34.852 80.156 77.892v467.573c0 3.303-35.887 0-80.156 0v0 0zM772.481 741.976h-175.668v47.803c0 27.716-49.533 50.171-78.429 50.171h-156.811c-28.851 0-78.383-22.455-78.383-50.171v-47.803h-175.668c-22.060 0-39.93-17.578-39.93-39.196s17.87-39.191 39.93-39.191h664.945c22.060 0 39.931 17.524 39.931 39.191 0.001 21.67-17.921 39.196-39.931 39.196v0 0zM518.393 741.976h-156.762v19.592h156.762v-19.592z" />
<glyph unicode="&#xe929;" glyph-name="back" d="M970.24 453.12c0-12.8-2.56-20.48-5.12-28.16 0 0 0-2.56 0-2.56s0 0 0 0 0 0 0 0 0 0 0 0 0 0 0 0 0 0-2.56 0c0 0 0 0 0 0s0 0-2.56-2.56c0 0 0 0 0 0s-2.56-2.56-2.56-2.56c0 0 0 0-2.56-2.56 0 0 0 0 0 0s0 0-2.56-2.56c0 0 0 0 0 0s0 0 0-2.56c0 0 0 0 0 0s0 0 0 0 0 0 0 0 0 0 0 0 0 0-2.56 0c0 0 0 0 0 0s0 0 0 0 0 0 0 0 0 0-2.56 0c0 0 0 0 0 0s0 0-2.56 0c0 0 0 0 0 0s0 0-2.56 0c0 0 0 0 0 0s0 0-2.56 0c0 0 0 0 0 0s0 0-2.56 0c0 0 0 0 0 0s0 0-2.56 0c0 0 0 0 0 0s0 0-2.56 0c0 0 0 0 0 0s0 0-2.56 0c0 0 0 0 0 0s-2.56 0-2.56 0c0 0 0 0 0 0-5.12 0-12.8 0-17.92 0-10.24 0-23.040 0-33.28 0-28.16 0-58.88 0-87.040 0-192 0-384 0-573.44 0 0 0 0 0 0 0 84.48-87.040 168.96-174.080 256-261.12 5.12-7.68 12.8-12.8 17.92-20.48 2.56-2.56 5.12-5.12 7.68-7.68 0 0 0 0 0 0s0 0 2.56-2.56c0 0 0 0 0 0s0 0 0 0 0 0 0-2.56c0 0 0 0 0 0s0 0 0 0 0 0 0 0 0 0 0-2.56c0 0 0 0 0 0s0 0 0 0 0 0 0 0 0 0 0-2.56c0 0 0 0 0 0s0 0 0-2.56c0 0 0 0 0 0s0 0 0 0 0 0 0 0 0-2.56 0-2.56c0 0 0 0 0 0s0-2.56 0-2.56c0 0 0 0 0 0s0 0 0-2.56c0 0 0 0 0 0s0-2.56 0-2.56c0 0 0 0 0 0s0-2.56 0-2.56c0 0 0 0 0 0s0-2.56 0-2.56 0-7.68 0-12.8c0 0 0-2.56 0-2.56s0 0 0 0 0 0 0-2.56c0 0 0 0 0 0s0 0 0-2.56c0 0 0 0 0 0s0 0 0-2.56c0 0 0 0 0 0s0 0 0-2.56c0 0 0 0 0 0s0 0 0-2.56c0 0 0 0 0 0s0 0 0 0 0 0 0 0 0 0 0-2.56c0 0 0 0 0 0s0-2.56 0-2.56c0 0 0 0 0 0s0 0 0-2.56c0 0 0 0 0 0s0 0 0-2.56c0 0 0 0 0 0s0 0 0 0 0 0 0 0 0 0 0-2.56c0 0 0 0-2.56 0 0 0 0 0 0 0-2.56-2.56-2.56-2.56-5.12-5.12 0 0-2.56-2.56-2.56-2.56s0 0 0 0 0 0 0-2.56c0 0 0 0 0 0s0 0 0-2.56c0 0 0 0-2.56 0 0 0 0 0 0 0s0 0-2.56 0c0 0 0 0 0 0-2.56 0-2.56 0-5.12-2.56 0 0 0 0 0 0s0 0 0 0 0 0 0 0 0 0-2.56 0c0 0 0 0 0 0s0 0-2.56 0c0 0 0 0 0 0s0 0-2.56 0c0 0 0 0 0 0s0 0-2.56 0c0 0 0 0 0 0s-2.56 0-2.56 0c0 0 0 0 0 0-2.56 0-5.12 0-7.68 0 0 0 0 0 0 0-2.56 0-10.24 0-12.8 2.56 0 0-2.56 0-2.56 0s0 0 0 0 0 0-2.56 0c0 0 0 0 0 0-2.56 0-2.56 0-5.12 0 0 0 0 0 0 0s0 0 0 0 0 0 0 0 0 0-2.56 0c-10.24 5.12-17.92 12.8-25.6 20.48-2.56 2.56-7.68 7.68-10.24 10.24-7.68 10.24-17.92 17.92-25.6 28.16-25.6 25.6-51.2 53.76-79.36 79.36-58.88 61.44-117.76 120.32-176.64 181.76-10.24 10.24-17.92 17.92-28.16 28.16-5.12 5.12-10.24 10.24-15.36 17.92-7.68 7.68-17.92 17.92-25.6 28.16 0 0 0 0 0 0s0 0 0 0 0 0 0 0 0 0 0 0 0 0 0 2.56c0 0 0 0 0 0s0 0 0 2.56c0 0 0 0 0 0s0 2.56 0 2.56c-2.56 10.24-2.56 23.040 0 30.72 0 0 0 2.56 0 2.56s0 0 0 0 0 0 0 2.56c0 0 0 0 0 0s0 2.56 0 2.56c0 0 0 0 0 0s0 2.56 0 2.56c0 0 0 0 0 0s0 0 0 0 0 0 0 0 0 0 0 0 0 0 0 0 0 0 0 0 0 0 2.56 0c0 0 0 0 0 0 2.56 2.56 5.12 5.12 7.68 7.68 0 0 2.56 2.56 2.56 2.56 5.12 5.12 7.68 7.68 12.8 12.8 23.040 7.68 30.72 12.8 35.84 20.48 15.36 15.36 28.16 28.16 43.52 43.52 74.24 74.24 145.92 151.040 220.16 225.28 15.36 15.36 28.16 28.16 43.52 43.52 5.12 5.12 10.24 10.24 15.36 15.36 0 0 2.56 2.56 2.56 2.56s0 0 2.56 0c0 0 0 0 0 0s0 0 0 0 0 0 0 0 0 0 2.56 0c0 0 0 0 0 0s0 0 2.56 0c0 0 0 0 0 0s0 0 2.56 0c0 0 0 0 0 0s0 0 2.56 0c0 0 0 0 0 0s0 0 2.56 0c0 0 0 0 0 0s0 0 0 0 0 0 0 0 2.56 0 2.56 0c7.68 2.56 17.92 5.12 25.6 2.56 2.56 0 2.56 0 5.12 0 7.68-2.56 12.8-5.12 17.92-10.24 0 0 2.56-2.56 2.56-2.56s2.56-2.56 2.56-2.56c0 0 0 0 0 0s0 0 2.56-2.56c0 0 0 0 0-2.56 0 0 0 0 0 0s0 0 0-2.56c0 0 0 0 0 0s0 0 0-2.56c0 0 0 0 0 0 0-2.56 0-2.56 2.56-5.12 0 0 0 0 0 0s0 0 0 0 0 0 0 0 0-2.56 0-2.56c0 0 0 0 0 0s0 0 0-2.56c0 0 0 0 0 0s0 0 0-2.56c0 0 0 0 0 0s0 0 0-2.56c0 0 0 0 0 0s0-2.56 0-2.56c0 0 0 0 0 0s0-2.56 0-2.56 2.56-7.68 0-12.8c0 0 0-2.56 0-2.56s0 0 0 0 0-2.56 0-2.56c0 0 0 0 0 0s0-2.56 0-2.56c0 0 0 0 0 0s0 0 0-2.56c0 0 0 0 0 0s0-2.56 0-2.56c0 0 0 0 0 0s0-2.56 0-2.56c0 0 0 0 0 0s0 0 0 0 0 0 0 0 0 0 0-2.56c0 0 0 0 0 0s0 0 0-2.56c0 0 0 0 0 0s0 0 0 0 0 0 0 0 0 0 0-2.56c0 0 0 0 0 0s0 0 0-2.56c0 0 0 0-2.56 0 0 0 0 0 0 0s0 0-2.56 0c0 0 0 0 0 0-2.56-2.56-7.68-7.68-10.24-10.24-10.24-10.24-17.92-17.92-28.16-28.16-56.32-56.32-112.64-115.2-168.96-171.52-12.8-12.8-25.6-25.6-38.4-38.4-5.12-5.12-10.24-10.24-15.36-15.36s-10.24-10.24-15.36-15.36c0 0-2.56-2.56-2.56-2.56-2.56-2.56-2.56-2.56-5.12-5.12 0 0-2.56 0-2.56-2.56 235.52 0 473.6 0 709.12 0 0 0 0 0 0 0s2.56 0 2.56 0c0 0 0 0 0 0s2.56 0 2.56 0c0 0 0 0 0 0s0 0 2.56 0c0 0 0 0 0 0s0 0 2.56 0c0 0 0 0 0 0s2.56 0 2.56 0c0 0 0 0 0 0s0 0 0 0 0 0 0 0 0 0 2.56 0c0 0 0 0 0 0s2.56 0 2.56 0c0 0 0 0 0 0s0 0 0 0 0 0 0 0 0 0 0 0 0 0 0 0 2.56 0 2.56 0c0 0 0 0 0 0s0 0 2.56 0c0 0 0 0 0 0s0 0 0 0 0 0 0 0 0 0 2.56 0c0 0 0-2.56 2.56-2.56 0 0 0 0 0 0s2.56-2.56 2.56-2.56c0 0 0 0 2.56 0 0 0 0 0 0 0s2.56 0 2.56-2.56c0 0 0 0 0 0s0 0 2.56 0c0 0 0 0 0 0s0 0 0 0 0 0 0-2.56c0 0 0 0 0 0s0 0 0-2.56c0 0 0 0 0 0s0 0 0 0 0 0 0 0 0 0 0 0 0 0 0 0 0-2.56 0-2.56c0 0 0 0 0 0s0 0 0-2.56c0 0 0 0 0 0s0 0 0-2.56c0 0 0 0 0 0s0 0 0-2.56c0 0 0 0 0 0s0 0 0-2.56c0 0 0 0 0 0s0 0 0-2.56c0 0 0 0 0 0s0-2.56 0-2.56c0 0 0 0 0 0 5.12 2.56 5.12 0 5.12 0z" />
<glyph unicode="&#xe92a;" glyph-name="shinClose" d="M601.6 448l353.28 353.28c25.6 25.6 25.6 64 0 89.6s-64 25.6-89.6 0l-353.28-353.28-353.28 353.28c-25.6 25.6-64 25.6-89.6 0s-25.6-64 0-89.6l353.28-353.28-353.28-353.28c-25.6-25.6-25.6-64 0-89.6s64-25.6 89.6 0l353.28 353.28 353.28-353.28c25.6-23.040 64-23.040 89.6 0 25.6 25.6 25.6 64 0 89.6l-353.28 353.28z" />
<glyph unicode="&#xe92b;" glyph-name="eyeOpen" d="M972.8 445.44c0 0 0 0 0 0s0 0 0 0 0-2.56 0 0c0-2.56 0-2.56 0-2.56s0 0 0 0c0-7.68-5.12-12.8-10.24-17.92-10.24-10.24-20.48-20.48-30.72-30.72-56.32-56.32-122.88-104.96-194.56-140.8-46.080-23.040-94.72-40.96-145.92-51.2-56.32-10.24-112.64-10.24-168.96 2.56-97.28 20.48-184.32 69.12-261.12 128-35.84 28.16-71.68 58.88-99.84 92.16-12.8 15.36-12.8 33.28 0 46.080 10.24 10.24 20.48 20.48 30.72 30.72 56.32 56.32 122.88 104.96 194.56 140.8 46.080 23.040 94.72 40.96 145.92 51.2 56.32 10.24 112.64 10.24 168.96-2.56 97.28-20.48 184.32-69.12 261.12-128 35.84-28.16 71.68-58.88 99.84-92.16 5.12-5.12 7.68-10.24 10.24-17.92 0 0 0 0 0 0s0 0 0 0 0 0 0 0 0 0 0 0 0 0 0 0c0-5.12 0-5.12 0-7.68 0 2.56 0 2.56 0 0v0 0 0zM501.76 609.28c-94.72 0-174.080-76.8-174.080-174.080 0-94.72 76.8-174.080 174.080-174.080s174.080 76.8 174.080 174.080-79.36 174.080-174.080 174.080v0 0zM501.76 332.8c-56.32 0-104.96 46.080-104.96 104.96 0 56.32 46.080 104.96 104.96 104.96 56.32 0 104.96-46.080 104.96-104.96-2.56-58.88-48.64-104.96-104.96-104.96v0 0z" />
<glyph unicode="&#xe92c;" glyph-name="eyeClose" d="M627.2 437.76l-171.52-92.16c15.36-10.24 35.84-15.36 56.32-15.36 61.44 2.56 110.080 48.64 115.2 107.52v0 0 0zM396.8 458.24l171.52 92.16c-15.36 10.24-35.84 15.36-56.32 15.36-61.44-2.56-110.080-48.64-115.2-107.52v0 0 0zM335.36 424.96c0 7.68-2.56 15.36-2.56 23.040 0 97.28 79.36 176.64 176.64 176.64 43.52 0 84.48-15.36 115.2-43.52l107.52 58.88c-66.56 33.28-143.36 56.32-225.28 56.32-204.8 0-376.32-145.92-448-212.48-17.92-17.92-17.92-48.64 0-66.56 23.040-23.040 56.32-51.2 97.28-81.92l179.2 89.6zM957.44 481.28c-23.040 23.040-56.32 51.2-97.28 81.92l-174.080-92.16c0-7.68 2.56-15.36 2.56-23.040 0-97.28-79.36-176.64-176.64-176.64-43.52 0-84.48 15.36-115.2 43.52l-107.52-58.88c66.56-33.28 143.36-56.32 225.28-56.32 204.8 0 376.32 145.92 445.44 212.48 17.92 20.48 17.92 51.2-2.56 69.12v0 0 0zM944.64 678.4c-7.68 15.36-25.6 20.48-40.96 12.8l-811.52-435.2c-15.36-7.68-20.48-25.6-12.8-38.4 5.12-10.24 15.36-15.36 25.6-15.36 5.12 0 10.24 0 12.8 2.56l811.52 432.64c17.92 10.24 23.040 28.16 15.36 40.96v0 0 0z" />
<glyph unicode="&#xe92d;" glyph-name="more" d="M532.48 391.68c-5.12-5.12-12.8-10.24-20.48-10.24s-15.36 2.56-20.48 10.24l-427.52 417.28c-5.12 7.68-10.24 12.8-10.24 20.48s2.56 15.36 10.24 20.48l46.080 46.080c5.12 5.12 12.8 10.24 20.48 10.24s15.36-2.56 20.48-10.24l360.96-353.28 360.96 353.28c5.12 5.12 12.8 10.24 20.48 10.24s15.36-2.56 20.48-10.24l46.080-46.080c5.12-5.12 10.24-12.8 10.24-20.48s-2.56-15.36-10.24-20.48l-427.52-417.28zM110.080 504.32c5.12 5.12 12.8 10.24 20.48 10.24s15.36-2.56 20.48-10.24l360.96-353.28 360.96 353.28c5.12 5.12 12.8 10.24 20.48 10.24s15.36-2.56 20.48-10.24l46.080-46.080c5.12-5.12 10.24-12.8 10.24-20.48s-2.56-15.36-10.24-20.48l-427.52-417.28c-5.12-5.12-12.8-10.24-20.48-10.24s-15.36 2.56-20.48 10.24l-427.52 417.28c-5.12 5.12-10.24 12.8-10.24 20.48s2.56 15.36 10.24 20.48l46.080 46.080z" />
<glyph unicode="&#xe92e;" glyph-name="info" d="M839.68-15.36h-655.36c-17.92 0-30.72 15.36-30.72 33.28v860.16c0 17.92 12.8 33.28 30.72 33.28h468.48c2.56 0 7.68 0 10.24-2.56 0 0 0 0 0 0 2.56 0 2.56-2.56 5.12-2.56 0 0 0 0 0 0s2.56 0 2.56-2.56c0 0 0 0 0 0 2.56 0 2.56-2.56 5.12-2.56l186.88-192c0 0 0 0 0 0s0 0 0 0 0 0 2.56-2.56c0 0 0 0 0 0s0 0 0-2.56c0 0 0 0 0 0s0-2.56 0-2.56c0 0 0 0 0 0s0-2.56 0-2.56c0 0 0 0 0 0s0 0 0-2.56c0 0 0 0 0 0s0-2.56 0-2.56c0 0 0 0 0 0s0-2.56 0-2.56c0 0 0 0 0 0s0-2.56 0-2.56c0 0 0 0 0 0v-668.16c5.12-20.48-7.68-35.84-25.6-35.84zM683.52 801.28v-81.92h79.36l-79.36 81.92zM808.96 652.8h-156.16c-17.92 0-30.72 15.36-30.72 33.28v158.72h-407.040v-793.6h593.92v601.6zM322.56 542.72h378.88c17.92 0 30.72-15.36 30.72-33.28s-12.8-33.28-30.72-33.28h-378.88c-17.92 0-30.72 15.36-30.72 33.28s12.8 33.28 30.72 33.28zM322.56 394.24h378.88c17.92 0 30.72-15.36 30.72-33.28s-12.8-33.28-30.72-33.28h-378.88c-17.92 0-30.72 15.36-30.72 33.28s12.8 33.28 30.72 33.28zM322.56 243.2h378.88c17.92 0 30.72-15.36 30.72-33.28s-12.8-33.28-30.72-33.28h-378.88c-17.92 0-30.72 15.36-30.72 33.28 0 20.48 12.8 33.28 30.72 33.28z" />
<glyph unicode="&#xe92f;" glyph-name="infoSearch" d="M962.56 7.68c-15.36-15.36-38.4-15.36-53.76 0l-143.36 140.8c-94.72-66.56-227.84-51.2-302.080 38.4-76.8 87.040-69.12 217.6 12.8 299.52s215.040 87.040 304.64 12.8c89.6-76.8 104.96-204.8 38.4-299.52l143.36-140.8c12.8-12.8 12.8-35.84 0-51.2zM760.32 409.6c-40.96 58.88-115.2 81.92-181.76 53.76s-104.96-94.72-89.6-163.84c12.8-69.12 76.8-117.76 148.48-117.76v0c40.96 0 79.36 15.36 107.52 43.52 46.080 48.64 53.76 128 15.36 184.32zM230.4 358.4h76.8c12.8 0 25.6-7.68 33.28-17.92s7.68-25.6 0-35.84c-7.68-10.24-20.48-17.92-33.28-17.92h-76.8c-20.48 0-38.4 15.36-38.4 35.84 2.56 17.92 17.92 35.84 38.4 35.84zM194.56 704c0 20.48 17.92 35.84 38.4 35.84h517.12c20.48 0 38.4-15.36 38.4-35.84s-17.92-35.84-38.4-35.84h-519.68c-20.48 0-35.84 15.36-35.84 35.84zM371.2 476.16h-140.8c-20.48 0-38.4 15.36-38.4 35.84 2.56 20.48 17.92 38.4 38.4 38.4h140.8c12.8 0 25.6-7.68 33.28-17.92s7.68-25.6 0-35.84c-7.68-12.8-20.48-20.48-33.28-20.48zM896 481.28c-20.48 0-35.84 15.36-35.84 35.84v299.52c0 12.8-10.24 20.48-23.040 20.48h-691.2c-12.8 0-23.040-10.24-23.040-20.48v-734.72c0-12.8 10.24-20.48 23.040-20.48h465.92c20.48 0 35.84-15.36 35.84-35.84s-15.36-35.84-35.84-35.84h-465.92c-51.2-2.56-94.72 38.4-94.72 89.6v737.28c0 51.2 43.52 92.16 94.72 92.16h691.2c53.76 0 94.72-40.96 94.72-94.72v-299.52c2.56-17.92-15.36-33.28-35.84-33.28z" />
<glyph unicode="&#xe930;" glyph-name="download" d="M936.96-12.8h-849.92c-17.92 0-35.84 17.92-35.84 35.84v294.4c0 20.48 15.36 35.84 35.84 35.84s35.84-15.36 35.84-35.84v-256h778.24v256c0 20.48 15.36 35.84 35.84 35.84s35.84-15.36 35.84-35.84v-291.84c0-20.48-17.92-38.4-35.84-38.4zM537.6 194.56v0c-7.68-7.68-15.36-12.8-28.16-12.8-10.24 0-20.48 5.12-28.16 12.8l-245.76 258.56c-5.12 7.68-10.24 15.36-10.24 25.6 0 20.48 15.36 38.4 35.84 38.4 10.24 0 20.48-5.12 28.16-12.8l184.32-186.88v552.96c0 20.48 17.92 38.4 38.4 38.4s35.84-17.92 35.84-38.4v-555.52l184.32 189.44c7.68 7.68 15.36 12.8 28.16 12.8 20.48 0 35.84-17.92 35.84-38.4 0-10.24-2.56-17.92-10.24-25.6l-248.32-258.56z" />
<glyph unicode="&#xe931;" glyph-name="circleClose" d="M834.56 125.44c-179.2-179.2-468.48-179.2-647.68 0s-179.2 468.48 0 647.68c179.2 179.2 468.48 179.2 647.68 0s179.2-471.040 0-647.68zM783.36 719.36c-35.84 35.84-79.36 64-128 84.48-43.52 17.92-92.16 28.16-143.36 28.16s-99.84-10.24-145.92-28.16c-48.64-20.48-89.6-48.64-128-84.48-35.84-35.84-64-79.36-84.48-128-15.36-43.52-25.6-92.16-25.6-143.36s10.24-99.84 28.16-145.92c20.48-48.64 48.64-89.6 84.48-128 35.84-35.84 79.36-64 128-84.48 43.52-15.36 92.16-25.6 143.36-25.6s99.84 10.24 145.92 28.16c48.64 20.48 89.6 48.64 128 84.48 35.84 35.84 64 79.36 84.48 128 15.36 43.52 25.6 92.16 25.6 143.36s-10.24 99.84-28.16 145.92c-17.92 46.080-46.080 89.6-84.48 125.44zM706.56 253.44c-15.36-15.36-38.4-15.36-51.2 0l-143.36 143.36-143.36-143.36c-15.36-15.36-38.4-15.36-51.2 0-15.36 15.36-15.36 38.4 0 51.2l143.36 143.36-143.36 143.36c-15.36 15.36-15.36 38.4 0 51.2 15.36 15.36 38.4 15.36 51.2 0l143.36-143.36 143.36 143.36c15.36 15.36 38.4 15.36 51.2 0 15.36-15.36 15.36-38.4 0-51.2l-143.36-143.36 143.36-143.36c12.8-12.8 12.8-35.84 0-51.2z" />
<glyph unicode="&#xe932;" glyph-name="telphone" d="M512 908.8c-253.44 0-460.8-204.8-460.8-460.8 0-253.44 204.8-460.8 460.8-460.8 253.44 0 460.8 204.8 460.8 460.8 0 253.44-207.36 460.8-460.8 460.8v0zM540.16 624.64c25.6 46.080 46.080 79.36 74.24 122.88 10.24 15.36 23.040 10.24 30.72 5.12 7.68-2.56 20.48-12.8 35.84-23.040-30.72-51.2-61.44-102.4-92.16-153.6-15.36 7.68-28.16 15.36-40.96 23.040-10.24 7.68-10.24 20.48-7.68 25.6v0zM309.76 197.12c-15.36 7.68-17.92 20.48-7.68 33.28 15.36 25.6 30.72 53.76 48.64 79.36 30.72 48.64 20.48 58.88 84.48 17.92 0 0 0-2.56 2.56-5.12-28.16-48.64-58.88-97.28-89.6-148.48-15.36 10.24-28.16 17.92-38.4 23.040v0zM724.48 573.44c-25.6-130.56-89.6-238.080-179.2-332.8-33.28-35.84-74.24-64-125.44-71.68-17.92-2.56-35.84 0-58.88 0 30.72 53.76 58.88 99.84 87.040 145.92 2.56 2.56 7.68 5.12 12.8 7.68 12.8 5.12 28.16 10.24 35.84 20.48 35.84 53.76 71.68 110.080 104.96 166.4 5.12 10.24 10.24 28.16 5.12 38.4-10.24 20.48-2.56 30.72 7.68 46.080s17.92 28.16 25.6 43.52 33.28 53.76 51.2 84.48c7.68-10.24 12.8-17.92 17.92-23.040 10.24-15.36 20.48-35.84 23.040-61.44-2.56-12.8-5.12-48.64-7.68-64v0z" />
<glyph unicode="&#xe933;" glyph-name="message" d="M512 906.24c-253.44 0-458.24-204.8-458.24-458.24s204.8-458.24 458.24-458.24c253.44 0 458.24 204.8 458.24 458.24s-204.8 458.24-458.24 458.24v0zM780.8 256h-537.6v256l186.88-130.56c23.040-15.36 51.2-23.040 79.36-23.040s56.32 7.68 79.36 23.040l186.88 130.56 5.12-256zM780.8 586.24l-222.72-153.6c-10.24-7.68-28.16-12.8-46.080-12.8s-35.84 5.12-46.080 12.8l-222.72 153.6v53.76h535.040v-53.76h2.56z" />
<glyph unicode="&#xe934;" glyph-name="trangleRight" d="M750.080 448l-476.16-317.44v634.88l476.16-317.44z" />
<glyph unicode="&#xe935;" glyph-name="sureAround" d="M788.48-12.8h-552.96c-102.4 0-184.32 81.92-184.32 184.32v552.96c0 102.4 81.92 184.32 184.32 184.32h552.96c102.4 0 184.32-81.92 184.32-184.32v-552.96c0-102.4-81.92-184.32-184.32-184.32zM806.4 706.56c-28.16 17.92-69.12 12.8-89.6-10.24l-309.76-368.64-102.4 110.080c-23.040 23.040-64 28.16-89.6 7.68-12.8-10.24-23.040-25.6-23.040-40.96-2.56-15.36 5.12-30.72 15.36-43.52l153.6-163.84c12.8-12.8 30.72-20.48 48.64-20.48 0 0 2.56 0 2.56 0 20.48 0 38.4 7.68 48.64 23.040l358.4 424.96c10.24 12.8 15.36 28.16 12.8 46.080-2.56 10.24-10.24 25.6-25.6 35.84z" />
<glyph unicode="&#xe936;" glyph-name="desRemove" d="M512 908.8c-253.44 0-460.8-207.36-460.8-460.8s207.36-460.8 460.8-460.8 460.8 207.36 460.8 460.8c0 253.44-207.36 460.8-460.8 460.8zM688.64 325.12c7.68-7.68 7.68-20.48 0-28.16l-28.16-28.16c-7.68-7.68-20.48-7.68-28.16 0l-120.32 125.44-122.88-122.88c-7.68-7.68-20.48-7.68-28.16 0l-28.16 28.16c-7.68 7.68-7.68 20.48 0 28.16l122.88 122.88-122.88 122.88c-7.68 7.68-7.68 20.48 0 28.16l28.16 28.16c7.68 7.68 20.48 7.68 28.16 0l122.88-122.88 122.88 122.88c7.68 7.68 20.48 7.68 28.16 0l28.16-28.16c7.68-7.68 7.68-20.48 0-28.16l-125.44-125.44 122.88-122.88z" />
<glyph unicode="&#xe937;" glyph-name="self-definedSearch" d="M678.4 335.36c0-15.36 12.8-28.16 28.16-28.16h235.52c15.36 0 28.16 12.8 28.16 28.16s-12.8 28.16-28.16 28.16h-235.52c-7.68 0-15.36-2.56-20.48-7.68s-7.68-12.8-7.68-20.48v0 0zM942.080 243.2h-337.92c-10.24 0-20.48-5.12-25.6-15.36s-5.12-20.48 0-30.72c5.12-10.24 15.36-15.36 25.6-15.36h340.48c15.36 0 28.16 12.8 28.16 28.16 0 17.92-12.8 30.72-30.72 33.28v0 0zM942.080 117.76h-455.68c-10.24 0-20.48-5.12-25.6-15.36s-5.12-20.48 0-30.72c5.12-10.24 15.36-15.36 25.6-15.36h458.24c15.36 0 28.16 12.8 28.16 28.16 0 20.48-12.8 33.28-30.72 33.28v0 0zM128 348.16l43.52-43.52 168.96-166.4 460.8 453.12c38.4 38.4 35.84 104.96-7.68 145.92l-61.44 61.44c-43.52 43.52-110.080 46.080-148.48 7.68l-460.8-453.12-66.56-243.2c-2.56-10.24 0-23.040 7.68-30.72s20.48-10.24 30.72-7.68l245.76 66.56-51.2 48.64-161.28-40.96 43.52 158.72-43.52 43.52zM629.76 760.32c15.36 15.36 40.96 12.8 56.32-2.56l61.44-61.44c15.36-15.36 17.92-40.96 2.56-56.32l-71.68-69.12-120.32 120.32 71.68 69.12zM509.44 642.56l120.32-120.32-294.4-291.84-120.32 120.32 294.4 291.84z" />
<glyph unicode="&#xe938;" glyph-name="sure" d="M852.504 636.16l-68.84 68.84-378.035-378.91-165.789 165.316-68.84-68.84 235.375-233.847 68.27 68.555-0.079 0.078 377.938 378.808z" />
<glyph unicode="&#xe939;" glyph-name="fasttips" d="M936.96 0c-17.92-17.92-46.080-12.8-66.56 7.68l-192 192c-61.44-40.96-143.36-71.68-220.16-71.68-102.4 0-199.68 40.96-273.92 115.2s-112.64 171.52-112.64 276.48 43.52 199.68 117.76 273.92c71.68 71.68 168.96 112.64 271.36 112.64s199.68-40.96 273.92-115.2 112.64-171.52 112.64-276.48c0-94.72-40.96-194.56-102.4-263.68l186.88-186.88c17.92-17.92 25.6-43.52 5.12-64zM773.12 517.12c0 166.4-148.48 314.88-312.32 314.88s-312.32-148.48-312.32-314.88 148.48-314.88 312.32-314.88 312.32 148.48 312.32 314.88zM391.68 253.44l28.16 230.4h-115.2l227.84 302.080-28.16-230.4h115.2l-227.84-302.080z" />
<glyph unicode="&#xe93a;" glyph-name="reliefArea" d="M954.88 384c0 0 0 0 0 0-12.8 0-20.48 7.68-23.040 17.92 0 10.24-2.56 17.92-5.12 28.16s2.56 20.48 12.8 25.6c10.24 2.56 23.040-2.56 25.6-12.8s5.12-23.040 7.68-33.28c2.56-12.8-5.12-23.040-17.92-25.6zM916.48 476.16c-7.68 0-12.8 2.56-17.92 7.68-5.12 7.68-12.8 15.36-17.92 23.040-7.68 7.68-7.68 20.48 2.56 28.16 7.68 7.68 20.48 7.68 28.16-2.56 7.68-7.68 15.36-17.92 20.48-25.6 7.68-10.24 5.12-20.48-5.12-28.16-2.56 0-7.68-2.56-10.24-2.56zM842.24 547.84c-5.12 0-7.68 0-12.8 2.56-7.68 5.12-15.36 10.24-25.6 15.36s-12.8 17.92-7.68 28.16c5.12 10.24 17.92 12.8 28.16 7.68s17.92-12.8 28.16-17.92c10.24-7.68 10.24-17.92 5.12-28.16-2.56-5.12-7.68-7.68-15.36-7.68zM837.12 194.56c5.12-10.24 2.56-20.48-7.68-28.16-10.24-5.12-17.92-10.24-28.16-15.36-2.56-2.56-5.12-2.56-10.24-2.56-7.68 0-15.36 2.56-17.92 10.24-5.12 10.24-2.56 20.48 7.68 25.6s17.92 10.24 25.6 15.36c12.8 7.68 25.6 5.12 30.72-5.12zM752.64 596.48c-2.56 0-5.12 0-7.68 2.56-5.12 2.56-10.24 2.56-15.36 5.12-10.24 5.12-15.36 15.36-12.8 25.6 5.12 10.24 15.36 15.36 25.6 10.24 5.12-2.56 10.24-5.12 15.36-5.12 10.24-5.12 15.36-15.36 10.24-25.6 0-7.68-7.68-12.8-15.36-12.8zM770.56 381.44c0-87.040-115.2-153.6-258.56-153.6s-258.56 66.56-258.56 153.6c0 46.080 33.28 89.6 89.6 117.76 12.8 5.12 25.6 2.56 33.28-10.24 5.12-10.24 2.56-25.6-10.24-30.72-40.96-20.48-64-48.64-64-76.8 0-25.6 20.48-51.2 56.32-71.68 40.96-23.040 94.72-35.84 153.6-35.84s112.64 12.8 153.6 35.84c35.84 20.48 56.32 46.080 56.32 71.68 0 28.16-23.040 56.32-66.56 76.8-12.8 5.12-17.92 20.48-10.24 30.72 5.12 12.8 20.48 15.36 33.28 10.24 58.88-28.16 92.16-71.68 92.16-117.76zM499.2 389.12c-43.52 33.28-145.92 174.080-145.92 266.24 0 87.040 71.68 156.16 158.72 156.16s158.72-69.12 158.72-156.16c0-97.28-112.64-240.64-145.92-266.24-7.68-5.12-17.92-5.12-25.6 0zM588.8 655.36c0 40.96-35.84 74.24-76.8 74.24-43.52 0-76.8-33.28-76.8-74.24s35.84-74.24 76.8-74.24c43.52-2.56 76.8 33.28 76.8 74.24zM296.96 604.16c-5.12-2.56-10.24-2.56-15.36-5.12-2.56 0-5.12-2.56-7.68-2.56-7.68 0-15.36 5.12-17.92 12.8-5.12 10.24 0 23.040 10.24 25.6 5.12 2.56 10.24 5.12 15.36 5.12 10.24 5.12 23.040-2.56 25.6-12.8 5.12-7.68 0-17.92-10.24-23.040zM227.84 151.040c-2.56 0-7.68 0-10.24 2.56-10.24 5.12-20.48 10.24-28.16 15.36-10.24 5.12-12.8 17.92-5.12 28.16 5.12 10.24 17.92 12.8 28.16 5.12 7.68-5.12 17.92-10.24 25.6-15.36 10.24-5.12 12.8-17.92 7.68-28.16-5.12-5.12-10.24-7.68-17.92-7.68zM194.56 552.96c-2.56-2.56-7.68-2.56-10.24-2.56-5.12 0-12.8 2.56-17.92 7.68-7.68 7.68-5.12 20.48 5.12 28.16 7.68 5.12 17.92 12.8 28.16 17.92s23.040 2.56 28.16-7.68c5.12-10.24 2.56-20.48-7.68-28.16-7.68-5.12-15.36-10.24-25.6-15.36zM158.72 215.040c-5.12-5.12-10.24-5.12-15.36-5.12s-10.24 2.56-15.36 5.12c-7.68 7.68-15.36 15.36-23.040 23.040s-5.12 20.48 2.56 28.16c7.68 7.68 20.48 5.12 28.16-2.56 5.12-7.68 12.8-15.36 20.48-20.48 10.24-7.68 10.24-20.48 2.56-28.16zM128 488.96c-5.12-5.12-10.24-7.68-15.36-7.68s-7.68 0-12.8 2.56c-10.24 7.68-10.24 17.92-5.12 28.16 7.68 7.68 12.8 17.92 20.48 25.6s20.48 7.68 28.16 0c10.24-5.12 10.24-17.92 2.56-28.16-7.68-5.12-12.8-12.8-17.92-20.48zM97.28 432.64c-2.56-7.68-5.12-17.92-5.12-28.16-2.56-10.24-10.24-17.92-20.48-17.92 0 0-2.56 0-2.56 0-10.24 2.56-17.92 12.8-17.92 23.040 2.56 10.24 5.12 23.040 7.68 33.28s15.36 15.36 25.6 12.8c10.24-2.56 15.36-12.8 12.8-23.040zM69.12 358.4c10.24 2.56 23.040-5.12 25.6-15.36 2.56-7.68 5.12-17.92 10.24-25.6 5.12-10.24 0-23.040-10.24-25.6-2.56 0-5.12-2.56-7.68-2.56-7.68 0-15.36 5.12-17.92 12.8-5.12 10.24-7.68 20.48-10.24 33.28-7.68 10.24 0 20.48 10.24 23.040zM299.52 161.28c10.24-2.56 20.48-7.68 28.16-10.24 10.24-2.56 17.92-15.36 12.8-25.6-2.56-7.68-10.24-12.8-20.48-12.8-2.56 0-5.12 0-5.12 0-10.24 2.56-20.48 7.68-30.72 10.24s-15.36 15.36-12.8 25.6c5.12 10.24 17.92 15.36 28.16 12.8zM394.24 135.68c10.24-2.56 20.48-2.56 30.72-5.12s17.92-10.24 17.92-23.040c-2.56-10.24-10.24-17.92-20.48-17.92 0 0-2.56 0-2.56 0-10.24 2.56-23.040 2.56-33.28 5.12s-17.92 12.8-15.36 23.040c2.56 12.8 12.8 20.48 23.040 17.92zM494.080 125.44c10.24 0 20.48 0 30.72 0s20.48-7.68 20.48-20.48c0-10.24-7.68-20.48-20.48-20.48-5.12 0-10.24 0-15.36 0s-12.8 0-17.92 0c-10.24 0-20.48 10.24-20.48 20.48 2.56 12.8 12.8 20.48 23.040 20.48zM593.92 130.56c10.24 0 20.48 2.56 30.72 5.12s20.48-5.12 23.040-15.36c2.56-10.24-5.12-20.48-15.36-23.040s-20.48-2.56-33.28-5.12c0 0-2.56 0-2.56 0-10.24 0-17.92 7.68-20.48 17.92 0 7.68 7.68 17.92 17.92 20.48zM691.2 151.040c10.24 2.56 20.48 5.12 28.16 10.24 10.24 2.56 23.040-2.56 25.6-12.8s-2.56-20.48-12.8-25.6c-10.24-2.56-20.48-7.68-30.72-10.24-2.56 0-5.12 0-5.12 0-7.68 0-17.92 5.12-20.48 15.36-2.56 7.68 5.12 17.92 15.36 23.040zM883.2 261.12c7.68 7.68 20.48 10.24 28.16 2.56s10.24-20.48 2.56-28.16c-7.68-7.68-15.36-15.36-23.040-23.040-5.12-2.56-10.24-5.12-12.8-5.12-5.12 0-10.24 2.56-15.36 5.12-7.68 7.68-7.68 20.48 0 28.16s15.36 12.8 20.48 20.48zM919.040 314.88c5.12 7.68 7.68 17.92 10.24 25.6 2.56 10.24 15.36 17.92 25.6 15.36s17.92-12.8 15.36-23.040c-2.56-10.24-7.68-20.48-12.8-33.28-2.56-7.68-10.24-12.8-17.92-12.8-2.56 0-5.12 0-7.68 2.56-12.8 2.56-17.92 15.36-12.8 25.6z" />
<glyph unicode="&#xe93b;" glyph-name="administrativeDivision" d="M926.72 51.2v0l-69.12 243.2c-5.12 15.36-23.040 25.6-38.4 23.040-7.68-2.56-15.36-7.68-20.48-15.36s-5.12-17.92-2.56-25.6l56.32-197.12h-2.56l-161.28 35.84-23.040 84.48c-2.56 7.68-7.68 15.36-15.36 20.48s-15.36 5.12-25.6 2.56c-7.68-2.56-15.36-7.68-20.48-15.36s-5.12-15.36-2.56-25.6l15.36-58.88-232.96-74.24-212.48 71.68v2.56l79.36 232.96c2.56 7.68 0 17.92-2.56 23.040-5.12 7.68-10.24 12.8-20.48 15.36-2.56 0-5.12 0-7.68 0-5.12 0-10.24-2.56-15.36-5.12-7.68-5.12-12.8-10.24-15.36-17.92l-92.16-261.12c-2.56-12.8 2.56-25.6 12.8-33.28 2.56-2.56 7.68-5.12 10.24-5.12l245.76-81.92h2.56c5.12-2.56 10.24-2.56 17.92 0l245.76 76.8 250.88-51.2c10.24-2.56 20.48 0 25.6 5.12 0 0 2.56 0 2.56 2.56v0l5.12 5.12c10.24 2.56 12.8 15.36 10.24 23.040v0zM496.64 197.12v0c12.8-10.24 30.72-10.24 43.52 0 66.56 48.64 281.6 217.6 281.6 417.28 2.56 161.28-133.12 294.4-302.080 294.4s-304.64-133.12-304.64-294.4c0-192 197.12-355.84 281.6-417.28v0zM519.68 844.8c133.12 0 240.64-104.96 240.64-230.4 0-161.28-179.2-296.96-232.96-335.36-2.56-2.56-5.12-2.56-7.68-2.56s-5.12 0-7.68 2.56c-53.76 38.4-232.96 176.64-232.96 335.36 0 128 107.52 230.4 240.64 230.4v0zM519.68 478.72c71.68 0 130.56 58.88 130.56 130.56s-58.88 130.56-130.56 130.56v0c-35.84 0-66.56-12.8-92.16-38.4s-38.4-56.32-38.4-92.16c0-74.24 58.88-130.56 130.56-130.56v0zM519.68 673.28c35.84 0 66.56-30.72 66.56-66.56s-30.72-66.56-66.56-66.56c-35.84 0-66.56 30.72-66.56 66.56 0 38.4 30.72 66.56 66.56 66.56v0z" />
<glyph unicode="&#xe93c;" glyph-name="tabDelete" d="M567.94 448l220.554 220.554c15.986 15.986 15.986 39.954 0 55.94s-39.954 15.986-55.94 0l-220.554-220.554-220.554 220.554c-15.986 15.986-39.954 15.986-55.94 0s-15.986-39.954 0-55.94l220.554-220.554-220.554-220.554c-15.986-15.986-15.986-39.954 0-55.94s39.954-15.986 55.94 0l220.554 220.554 220.554-220.554c15.986-14.383 39.954-14.383 55.94 0 15.986 15.986 15.986 39.954 0 55.94l-220.554 220.554z" />
<glyph unicode="&#xe93d;" glyph-name="calendar" d="M801.28 852.48h-58.88v56.32h-58.88v-58.88h-345.6v58.88h-56.32v-58.88h-58.88c-64 0-115.2-51.2-115.2-115.2v-634.88c0-64 51.2-115.2 115.2-115.2h576c64 0 115.2 51.2 115.2 115.2v637.44c2.56 61.44-51.2 115.2-112.64 115.2zM222.72 793.6h58.88v-58.88h58.88v58.88h345.6v-58.88h56.32v58.88h58.88c30.72 0 56.32-25.6 56.32-56.32v-115.2h-691.2v115.2c0 30.72 25.6 56.32 56.32 56.32zM801.28 43.52h-578.56c-30.72 0-56.32 25.6-56.32 56.32v460.8h691.2v-460.8c0-30.72-25.6-56.32-56.32-56.32zM281.6 448h460.8v-58.88h-460.8c0 0 0 58.88 0 58.88zM281.6 273.92h460.8v-58.88h-460.8c0 0 0 58.88 0 58.88z" />
<glyph unicode="&#xe93e;" glyph-name="diagram" d="M936.96 12.8h-849.92c-10.24 0-17.92 2.56-25.6 10.24 0 0 0 0 0 0s0 0 0 0c-7.68 5.12-10.24 15.36-10.24 23.040v0 803.84c0 17.92 15.36 33.28 35.84 33.28s35.84-15.36 35.84-33.28v-768h816.64c20.48 0 35.84-15.36 35.84-33.28-2.56-20.48-17.92-35.84-38.4-35.84zM814.080 158.72c-40.96 0-64 23.040-64 58.88v378.88c0 38.4 23.040 58.88 64 58.88s64-23.040 64-58.88v-378.88c-2.56-38.4-23.040-58.88-64-58.88zM560.64 158.72c-40.96 0-64 23.040-64 58.88v558.080c0 38.4 23.040 58.88 64 58.88s64-23.040 64-58.88v-558.080c0-66.56-64-58.88-64-58.88zM307.2 158.72c-40.96 0-64 23.040-64 58.88v271.36c0 38.4 23.040 58.88 64 58.88s64-23.040 64-58.88v-271.36c0-38.4-23.040-58.88-64-58.88z" />
<glyph unicode="&#xe93f;" glyph-name="pullNorth" d="M512 678.4c20.48 0 38.4-7.68 53.76-20.48l384-330.24c30.72-25.6 30.72-66.56 0-94.72-30.72-25.6-79.36-25.6-107.52 0l-330.24 286.72-330.24-284.16c-30.72-25.6-79.36-25.6-107.52 0-30.72 25.6-30.72 66.56 0 94.72l384 330.24c15.36 12.8 33.28 17.92 53.76 17.92v0z" />
<glyph unicode="&#xe940;" glyph-name="infoSend" d="M960 256l-138.24-156.16c-7.68-7.68-17.92-12.8-28.16-12.8-23.040 0-40.96 20.48-40.96 46.080 0 12.8 5.12 25.6 12.8 33.28l66.56 76.8h-371.2c-23.040 0-40.96 20.48-40.96 46.080s17.92 46.080 40.96 46.080h368.64l-66.56 76.8c-7.68 7.68-12.8 20.48-12.8 33.28 0 25.6 17.92 46.080 40.96 46.080 10.24 0 23.040-5.12 28.16-12.8l138.24-156.16c7.68-7.68 12.8-20.48 12.8-33.28 2.56-12.8-2.56-25.6-10.24-33.28v0zM627.2 652.8h-204.8v158.72h-232.96c-38.4 0-69.12-30.72-69.12-69.12v-591.36c0-38.4 30.72-69.12 69.12-69.12h368.64c38.4 0 69.12 30.72 69.12 69.12h69.12v-69.12c0-38.4-30.72-69.12-69.12-69.12h-506.88c-38.4 0-69.12 30.72-69.12 69.12v729.6c0 38.4 30.72 69.12 69.12 69.12h381.44l194.56-204.8v-227.84h-69.12v204.8z" />
<glyph unicode="&#xe941;" glyph-name="pause" d="M512-10.24c-253.44 0-458.24 204.8-458.24 458.24s204.8 458.24 458.24 458.24 458.24-204.8 458.24-458.24c0-253.44-204.8-458.24-458.24-458.24zM512 842.24c-217.6 0-394.24-176.64-394.24-394.24s176.64-394.24 394.24-394.24c217.6 0 394.24 176.64 394.24 394.24s-176.64 394.24-394.24 394.24zM578.56 645.12h97.28v-391.68h-97.28v391.68zM348.16 645.12h97.28v-391.68h-97.28v391.68z" />
<glyph unicode="&#xe942;" glyph-name="set" d="M908.8 540.16h-74.24c-7.68 25.6-17.92 51.2-30.72 74.24l53.76 53.76c23.040 23.040 23.040 64 0 87.040l-43.52 43.52c-23.040 23.040-64 23.040-87.040 0l-53.76-53.76c-20.48 12.8-46.080 20.48-69.12 28.16v71.68c0 33.28-28.16 61.44-61.44 61.44h-61.44c-33.28 0-61.44-28.16-61.44-61.44v-74.24c-25.6-7.68-48.64-17.92-71.68-30.72l-56.32 56.32c-23.040 23.040-64 23.040-87.040 0l-40.96-43.52c-23.040-23.040-23.040-64 0-87.040l56.32-56.32c-12.8-23.040-23.040-46.080-28.16-71.68h-76.8c-33.28 0-61.44-28.16-61.44-61.44v-61.44c0-33.28 28.16-61.44 61.44-61.44h74.24c7.68-23.040 15.36-48.64 28.16-69.12l-53.76-53.76c-23.040-23.040-23.040-64 0-87.040l43.52-43.52c23.040-23.040 64-23.040 87.040 0l53.76 53.76c23.040-12.8 48.64-23.040 74.24-30.72v-74.24c0-33.28 28.16-61.44 61.44-61.44h61.44c33.28 0 61.44 28.16 61.44 61.44v74.24c25.6 7.68 48.64 17.92 71.68 30.72l51.2-51.2c23.040-23.040 64-23.040 87.040 0l43.52 43.52c23.040 23.040 23.040 64 0 87.040l-51.2 51.2c12.8 23.040 23.040 46.080 28.16 71.68h74.24c33.28 0 61.44 28.16 61.44 61.44v61.44c-2.56 33.28-30.72 61.44-64 61.44v0zM512 266.24c-99.84 0-184.32 81.92-184.32 181.76s81.92 181.76 184.32 181.76c99.84 0 181.76-81.92 181.76-181.76s-81.92-181.76-181.76-181.76v0z" />
<glyph unicode="&#xe943;" glyph-name="play" d="M934.4 268.8c-23.040-53.76-56.32-102.4-97.28-145.92-40.96-40.96-92.16-74.24-145.92-97.28-56.32-23.040-117.76-35.84-179.2-35.84s-122.88 12.8-179.2 35.84c-53.76 23.040-102.4 56.32-145.92 97.28-40.96 43.52-74.24 92.16-97.28 145.92-23.040 56.32-35.84 115.2-35.84 179.2 0 61.44 12.8 122.88 35.84 179.2 23.040 53.76 56.32 102.4 97.28 145.92 43.52 40.96 92.16 74.24 145.92 97.28 56.32 23.040 117.76 35.84 179.2 35.84s122.88-12.8 179.2-35.84c53.76-23.040 102.4-56.32 145.92-97.28 40.96-40.96 74.24-92.16 97.28-145.92 23.040-56.32 35.84-115.2 35.84-179.2 0-61.44-12.8-122.88-35.84-179.2zM512 842.24c-217.6 0-394.24-176.64-394.24-394.24s176.64-394.24 394.24-394.24c217.6 0 394.24 176.64 394.24 394.24s-176.64 394.24-394.24 394.24zM386.56 660.48l371.2-212.48-371.2-215.040v427.52z" />
<glyph unicode="&#xe944;" glyph-name="pavilion" d="M931.84 99.84h-76.8v445.44h76.8c12.8 0 25.6 7.68 33.28 20.48 10.24 17.92 2.56 40.96-15.36 48.64l-422.4 250.88c-10.24 5.12-23.040 5.12-33.28 0l-417.28-250.88c-12.8-5.12-23.040-17.92-23.040-33.28 0-20.48 17.92-35.84 35.84-35.84h76.8v-445.44h-74.24c-20.48 0-35.84-15.36-35.84-35.84s17.92-35.84 35.84-35.84h842.24c20.48 0 38.4 15.36 38.4 35.84-2.56 20.48-20.48 35.84-40.96 35.84zM512 780.8l263.68-163.84h-527.36l263.68 163.84zM650.24 99.84v445.44h130.56v-442.88zM448 99.84v445.44h130.56v-442.88zM243.2 99.84v445.44h130.56v-442.88z" />
<glyph unicode="&#xe945;" glyph-name="typhon" d="M273.92 448c0 66.56 25.6 125.44 69.12 168.96s102.4 69.12 168.96 69.12c130.56 0 238.080-104.96 238.080-238.080 0-66.56-25.6-125.44-69.12-168.96s-102.4-69.12-168.96-69.12c-130.56 0-238.080 107.52-238.080 238.080v0zM552.96 74.24c0 0 2.56 0 0 0 235.52 23.040 419.84 220.16 419.84 460.8 0 117.76-43.52 225.28-117.76 307.2 33.28-64 51.2-138.24 51.2-215.040 0-48.64-7.68-92.16-20.48-135.68 0 0 0 0 0 0-23.040 232.96-220.16 417.28-460.8 417.28-117.76 0-225.28-46.080-307.2-117.76 64 33.28 138.24 51.2 215.040 51.2 48.64 0 92.16-7.68 135.68-20.48-232.96-23.040-417.28-220.16-417.28-460.8 0-117.76 43.52-225.28 117.76-307.2-33.28 64-51.2 138.24-51.2 215.040 0 48.64 7.68 92.16 20.48 135.68 23.040-232.96 220.16-417.28 460.8-417.28 117.76 0 225.28 43.52 307.2 117.76-64-33.28-138.24-51.2-215.040-51.2-48.64 0-94.72 7.68-138.24 20.48v0z" />
<glyph unicode="&#xe946;" glyph-name="vedio" d="M862 529h-488.5l479 151.5c37.5 12 58 51.5 46 89l-28 88.5c-12 37.5-51.5 58-89 46l-647.5-204.5c-37.5-12-58-51.5-46-89l28-88.5c2-7 5.5-13.5 9.5-19-12-13.5-19.5-31.5-19.5-51v-386c0-42.5 34.5-77 77-77h679.5c42.5 0 77 34.5 77 77v386c0 42.5-34.5 77-77.5 77zM810 846.5c2-1.5 4-3.5 5-6.5l28-88.5c2-6.5-1.5-13.5-8-15.5l-43.5-14 18.5 124.5zM643 799l74.5 23.5-19.5-129.5-74.5-23.5 19.5 129.5zM475 746l74.5 23.5-19.5-129.5-74.5-23.5 19.5 129.5zM307.5 693l74.5 23.5-19.5-129.5-74.5-23.5 19.5 129.5zM151.5 643.5l62 19.5-19.5-129.5-7.5-2.5c-6.5-2-13.5 1.5-15.5 8l-28 88.5c-1.5 7 2.5 14 8.5 16zM868 65.5c0-3-2.5-6-6-6h-679c-3.5 0-6 2.5-6 6v386c0 3 2.5 6 6 6h679.5c3.5 0 6-2.5 6-6v-386zM489 390.5c-11.5 10-29 13-44 7.5s-25-18-25-32.5v-214.5c0-14 10-27 25-32 5-2 10.5-2.5 15.5-2.5 10.5 0 21 3.5 28.5 10l125 107.5c16 13.5 16 35.5 0 49.5l-125 107z" />
<glyph unicode="&#xe947;" glyph-name="addAround" d="M51.2-12.8v921.6h921.6v-921.6h-921.6zM906.24 842.24h-788.48v-788.48h788.48v788.48zM839.68 381.44h-261.12v-263.68h-130.56v263.68h-263.68v130.56h263.68v263.68h130.56v-263.68h263.68v-130.56z" />
<glyph unicode="&#xe948;" glyph-name="addCircle" d="M512-12.8c-253.44 0-460.8 207.36-460.8 460.8s207.36 460.8 460.8 460.8 460.8-207.36 460.8-460.8-207.36-460.8-460.8-460.8zM512 849.92c-220.16 0-401.92-179.2-401.92-401.92 0-220.16 179.2-401.92 401.92-401.92s401.92 179.2 401.92 401.92c0 220.16-181.76 401.92-401.92 401.92zM512 204.8c-15.36 0-30.72 12.8-30.72 30.72v435.2c0 15.36 12.8 30.72 30.72 30.72 15.36 0 30.72-12.8 30.72-30.72v-435.2c0-17.92-15.36-30.72-30.72-30.72zM729.6 422.4h-435.2c-15.36 0-30.72 12.8-30.72 30.72 0 15.36 12.8 30.72 30.72 30.72h435.2c15.36 0 30.72-12.8 30.72-30.72-2.56-17.92-15.36-30.72-30.72-30.72z" />
<glyph unicode="&#xe949;" glyph-name="conference" d="M896 558.080c-7.68-15.36-17.92-28.16-33.28-38.4 5.12-15.36 7.68-20.48 10.24-28.16 10.24 0 74.24-2.56 79.36-12.8 23.040-25.6 23.040-71.68 20.48-97.28-35.84-15.36-94.72-23.040-153.6-23.040-15.36 33.28-33.28 64-58.88 87.040l-12.8 12.8h-17.92c-12.8 0-25.6 0-38.4 0 2.56 7.68 7.68 15.36 12.8 20.48 5.12 10.24 69.12 12.8 79.36 12.8 2.56 10.24 5.12 17.92 7.68 28.16-15.36 10.24-25.6 23.040-30.72 38.4-7.68 0-25.6 0-30.72 0-7.68 51.2 2.56 128 25.6 145.92 33.28 25.6 112.64 25.6 145.92 2.56 23.040-17.92 40.96-99.84 30.72-145.92-7.68-2.56-30.72 0-35.84-2.56v0 0zM345.6 407.040c-61.44-51.2-74.24-153.6-74.24-215.040 61.44-56.32 450.56-53.76 529.92 0 7.68 69.12-23.040 171.52-71.68 217.6-17.92 0-35.84 0-53.76 0-15.36 0-25.6 0-35.84 5.12-10.24 10.24-17.92 28.16-20.48 48.64 12.8 15.36 23.040 30.72 30.72 51.2 7.68 5.12 12.8 10.24 17.92 20.48s5.12 23.040 5.12 38.4v5.12l-7.68 5.12c-2.56 0-2.56 2.56-5.12 2.56 7.68 61.44-2.56 102.4-35.84 125.44-48.64 33.28-140.8 33.28-189.44-2.56-30.72-23.040-38.4-56.32-30.72-122.88 0 0-2.56 0-2.56-2.56l-5.12-2.56v-5.12c0-15.36 2.56-30.72 5.12-40.96 5.12-10.24 10.24-15.36 17.92-20.48 7.68-20.48 17.92-38.4 33.28-53.76-2.56-17.92-7.68-30.72-15.36-40.96-10.24-10.24-23.040-15.36-38.4-12.8-15.36 0-33.28 0-53.76 0v0 0zM102.4 514.56c15.36 0 28.16 0 40.96 0s20.48 2.56 28.16 7.68c5.12 7.68 7.68 17.92 10.24 28.16-10.24 10.24-17.92 23.040-23.040 38.4-5.12 2.56-10.24 7.68-12.8 15.36s-5.12 15.36-5.12 28.16v2.56l2.56 2.56c0 0 0 0 2.56 0-7.68 46.080 0 69.12 20.48 87.040 33.28 25.6 97.28 25.6 130.56 2.56 23.040-15.36 30.72-43.52 25.6-87.040 0 0 2.56 0 2.56-2.56l2.56-2.56v-2.56c0-10.24 0-20.48-5.12-28.16-2.56-7.68-7.68-10.24-12.8-15.36-5.12-12.8-12.8-25.6-20.48-35.84 2.56-15.36 7.68-28.16 15.36-33.28 5.12-2.56 15.36-5.12 25.6-2.56 10.24 0 20.48 0 30.72 0 5.12-12.8 12.8-23.040 23.040-30.72 5.12-12.8 10.24-23.040 17.92-33.28v0c-17.92 0-38.4 0-56.32 0h-17.92l-12.8-10.24c-33.28-28.16-53.76-64-69.12-104.96-84.48-2.56-171.52 7.68-194.56 28.16 0 40.96 7.68 112.64 51.2 148.48v0z" />
<glyph unicode="&#xe94a;" glyph-name="dialogue" d="M785.92 860.16h-611.84c-66.56 0-122.88-56.32-122.88-128v-419.84c0-71.68 53.76-128 122.88-128h345.6c0 0 143.36-122.88 161.28-138.24 20.48-15.36 28.16-12.8 28.16 0s0 138.24 0 138.24h140.8c66.56 0 122.88 56.32 122.88 128v419.84c0 71.68-53.76 128-122.88 128h-64zM314.88 448c-35.84 0-66.56 30.72-66.56 69.12s30.72 69.12 66.56 69.12c35.84 0 66.56-30.72 66.56-69.12s-30.72-69.12-66.56-69.12v0zM512 448c-35.84 0-66.56 30.72-66.56 69.12s30.72 69.12 66.56 69.12c35.84 0 66.56-30.72 66.56-69.12s-30.72-69.12-66.56-69.12v0zM709.12 448c-35.84 0-66.56 30.72-66.56 69.12s30.72 69.12 66.56 69.12c35.84 0 66.56-30.72 66.56-69.12s-30.72-69.12-66.56-69.12v0z" />
<glyph unicode="&#xe94b;" glyph-name="folder" d="M872.5 105c0-32-26-57.5-57.5-57.5h-721l101 476c0 32 26 57.5 57.5 57.5h663c32 0 57.5-26 57.5-57.5l-100.5-418.5zM209 624h649v57c0 32-26 57.5-57.5 57.5h-346v52.5c0 32-26 57.5-57.5 57.5h-288.5c-32 0-57.5-26-57.5-57.5v-686l101 461.5c-0.5 32 25.5 57.5 57 57.5v0z" />
<glyph unicode="&#xe94c;" glyph-name="invitation" d="M512 906.24c-253.44 0-458.24-204.8-458.24-458.24s204.8-458.24 458.24-458.24 458.24 204.8 458.24 458.24-204.8 458.24-458.24 458.24zM512 38.4c-115.2 0-220.16 48.64-294.4 125.44h542.72v56.32c-110.080 99.84-225.28 120.32-225.28 120.32-10.24 20.48 0 46.080 0 46.080v0c46.080 30.72 69.12 84.48 69.12 84.48 48.64 46.080 15.36 76.8 5.12 81.92 0 2.56 0 12.8 0 43.52 0 122.88-89.6 133.12-89.6 133.12-23.040 5.12-38.4 5.12-40.96 5.12 0 0-15.36 0-43.52-5.12 0 0-89.6-15.36-89.6-133.12-2.56-28.16 0-40.96 0-43.52-7.68-5.12-43.52-35.84 5.12-81.92 0 0 23.040-53.76 64-84.48 0 0 10.24-25.6 0-46.080 0 0-110.080-20.48-222.72-120.32v-28.16c-56.32 71.68-89.6 158.72-89.6 256 0 225.28 184.32 409.6 409.6 409.6s409.6-184.32 409.6-409.6c0-225.28-184.32-409.6-409.6-409.6zM880.64 519.68h-74.24v74.24h-48.64v-74.24h-76.8v-48.64h76.8v-74.24h48.64v74.24h74.24z" />
<glyph unicode="&#xe94d;" glyph-name="invited" d="M512 908.621c-254.464 0-460.621-206.157-460.621-460.621 0-254.438 206.157-460.595 460.621-460.595s460.621 206.157 460.621 460.595c0 254.464-206.157 460.621-460.621 460.621zM512 35.712c-225.485 0-412.314 186.803-412.314 412.288s186.854 412.314 412.314 412.314c225.51 0 412.314-186.829 412.314-412.314 0-90.189-32.23-173.952-80.538-241.613v16.102c-112.742 96.64-228.736 119.194-228.736 119.194-9.651 19.354 0 45.107 0 45.107 45.107 32.205 70.886 83.738 70.886 83.738 48.333 45.082 16.102 77.312 6.451 83.738 0 3.226 0 12.877 0 45.082 0 122.419-90.189 135.296-90.189 135.296-25.779 3.226-41.882 3.226-45.107 3.226 0 0-16.102 0-45.107-6.426 0 0-86.963-16.128-90.163-135.296-3.251-29.005 0-38.656 0-45.107-6.451-6.451-45.107-35.456 6.426-83.738 0 0 22.554-54.733 64.435-83.738 0 0 9.651-25.805 0-45.107 0 0-109.491-19.354-222.259-122.394v-58.010h537.933c-77.286-74.061-180.378-122.342-296.346-122.342zM141.568 464.102h128.845v-29.005l119.168 51.558-119.168 51.533v-28.979h-128.845v-45.107z" />
<glyph unicode="&#xe94e;" glyph-name="removeUser" d="M843.71 627.42c-56.485 0-112.97 0-169.455 0-4.985 0-6.645 1.11-6.645 6.645 0.555 23.26 0 46.515 0 69.775 0 4.43 0.555 6.645 6.090 6.090 113.525 0 227.6 0 341.125 0 4.985 0 6.090-1.11 6.090-6.090 0-23.26-0.555-46.515 0-70.33 0-4.985-1.66-6.090-6.090-6.090-57.040 0-114.075 0-171.115 0v0zM794.98 59.805c1.66 44.855-0.555 89.155-12.735 132.905-32.675 121.83-104.11 212.095-217.635 268.58-12.735 6.090-26.025 11.63-40.425 16.615 9.415 8.305 18.275 16.615 25.475 25.475 55.375 71.435 64.24 148.965 25.475 229.815-49.84 104.11-178.315 141.765-275.225 82.51-59.805-36.55-93.035-91.925-98.020-161.7-4.985-69.22 18.83-127.37 70.33-173.885 0.555-0.555 2.215-1.11 1.66-2.77-1.11-0.555-1.66-0.555-2.77-1.11-134.565-52.055-218.185-149.52-254.735-287.96-11.075-42.64-12.735-85.835-12.185-129.585 0-6.090 1.66-7.2 7.2-7.2 259.165 0 517.78 0 776.945 0 1.11 0 1.66 0 2.77 0 3.325-0.555 4.985 0.555 4.43 4.43-1.11 1.11-1.11 2.77-0.555 3.875v0zM268.895 603.61c-16.060 63.685 14.95 131.8 72.545 160.040 65.9 32.12 144.535 4.43 177.76-62.575 38.21-77.53-1.11-172.225-81.96-197.145-12.185-3.875-24.92-5.54-34.89-5.54-64.79 0.555-117.955 43.195-133.46 105.215v0zM725.755 117.95c-1.66 0-2.77 0-4.43 0-107.43 0-214.865 0-322.295 0-107.985 0-216.525 0-324.51 0-5.54 0-6.645 1.66-6.090 6.645 7.755 71.99 34.335 136.78 81.96 191.605 53.16 62.025 120.17 100.785 201.020 112.415 111.31 15.505 206.005-18.83 284.085-99.68 55.375-57.59 85.835-127.37 93.59-206.555 0.555-2.77 0-4.43-3.325-4.43v0z" />
<glyph unicode="&#xe94f;" glyph-name="minusAround" d="M51.2-12.8v921.6h921.6v-921.6h-921.6zM906.24 842.24h-788.48v-788.48h788.48v788.48zM839.68 381.44h-655.36v130.56h657.92v-130.56z" />
<glyph unicode="&#xe950;" glyph-name="modelAnalysis" d="M973 711v0 0l-0.5 0.5-460.5 197.5-460-197 0.5-1-1 0.5v-526.5l461-197.5 461 197.5v525l-0.5 1zM134 675.5l377.5 161.5 377-161.5-377-161.5-377.5 161.5zM907 228l-395-169.5v383.5l26 11 369 158v-383z" />
<glyph unicode="&#xe951;" glyph-name="notice" d="M512-12c-253.5 0-460 206.5-460 460s206.5 460 460 460c253.5 0 460-206.5 460-460s-206.5-460-460-460v0zM512 842c-217 0-394-177-394-394s176.5-394 394-394c217 0 394 176.5 394 394 0 217-177 394-394 394v0zM462.5 662.5c0 13 5.5 26 14.5 35s22 14.5 35 14.5c13 0 26-5.5 35-14.5s14.5-22 14.5-35c0-13-5.5-26-14.5-35s-22-14.5-35-14.5c-13 0-26 5.5-35 14.5s-14.5 22-14.5 35v0zM512 184c-18 0-33 15-33 33v297c0 18 15 33 33 33s33-15 33-33v-297c0-18-15-33-33-33v0z" />
<glyph unicode="&#xe952;" glyph-name="pdf" d="M969 658l-231 247.5h-582.5v-369.5h50.5v318.5h481.5v-246.5h231v-567.5h-763v-50.5h814v668h-0.5zM430 365.5c-7.5 3-19.5 4.5-36.5 4.5h-45v-163h45.5c14 0 25 1.5 33 4s14.5 6.5 19 11c6.5 6.5 12 15.5 15.5 27s5.5 25 5.5 41c0 22.5-3.5 39.5-11 51.5-6.5 12-15.5 20-26 24v0zM748.5 480.5h-694v-384.5h694v384.5zM267.5 287.5c-11.5-12.5-32.5-19-62.5-19h-55v-86.5h-28v213h80.5c14 0 25-0.5 32.5-2 10.5-1.5 19.5-5 26.5-10s13-12 17-20.5c4.5-9 6.5-18.5 6.5-29-0.5-18-6-33.5-17.5-46v0zM491 246.5c-4-12.5-8.5-23-14.5-31s-12.5-14.5-19.5-19.5c-7-4.5-15.5-8.5-25.5-10.5-10-2.5-21.5-3.5-34-3.5h-77v213h73.5c16.5 0 29-1 38-3 12-3 22.5-8 31.5-15.5 11.5-9.5 19.5-21.5 25-36.5s8.5-31.5 8.5-50.5c0-16-2-30.5-6-43v0zM681 370v0h-115.5v-66h100v-25h-100v-97h-28v213h144v-25h-0.5zM231 368c-4.5 1.5-13.5 2-26.5 2h-54.5v-76h55c18 0 31 3.5 39 10 7.5 7 11.5 16.5 11.5 28.5 0 9-2 16.5-7 23-4 6.5-10 10.5-17.5 12.5v0z" />
<glyph unicode="&#xe953;" glyph-name="searchRecord" d="M187.5 451.5h186l31.5 65h-217.5v-65zM187.5 713h458.5v-65h-458.5c0 0.5 0 65 0 65zM950 74l-140 141.5c-1.5 1.5-3.5 3-5 4 23.5 36.5 37.5 80.5 37.5 127.5 0 129-104 234-232 234s-232-104.5-232-234c0-129 104-234 232-234 46.5 0 90 14 126.5 38 1.5-2 2.5-3.5 4-5l140-141.5c9.5-9.5 22-14.5 34.5-14.5s25 5 34.5 14.5c19 19 19 50 0 69.5zM610 186.5c-87.5 0-158.5 72-158.5 160s71 160 158.5 160c87.5 0 158.5-72 158.5-160 0.5-88-71-160-158.5-160zM722 131.5v-74c0-7-8-15.5-17.5-15.5h-571.5c-10 0-17.5 8.5-17.5 18.5v775c0 10 8 18.5 17.5 18.5h571.5c10 0 17.5-8.5 17.5-18.5v-252l55.5-35.5v337.5c0 11.5-9.5 21-21 21h-675.5c-11.5 0-21-9.5-21-21v-874.5c0-11.5 9.5-21 21-21h676c11.5 0 21 9.5 21 21v67.5l-56 53z" />
</font>
</defs>
</svg>
